<svg width="56" height="56" viewBox="0 0 56 56" fill="none" xmlns="http://www.w3.org/2000/svg">
<rect width="56" height="56" rx="16" fill="#282828"/>
<path d="M33.0676 13C27.9522 13 23.9459 15.4045 23.9459 18.473V21.6193C23.3585 21.55 22.748 21.5135 22.1216 21.5135C17.0062 21.5135 13 23.918 13 26.9865V36.7162C13 39.7847 17.0062 42.1892 22.1216 42.1892C26.2653 42.1892 29.6816 40.6118 30.8297 38.3812C31.557 38.487 32.3062 38.5405 33.0676 38.5405C38.183 38.5405 42.1892 36.1361 42.1892 33.0676V18.473C42.1892 15.4045 38.183 13 33.0676 13ZM39.7568 28.2027C39.7568 29.6378 36.8962 31.2432 33.0676 31.2432C32.4449 31.2432 31.8343 31.2007 31.2432 31.118V28.705C31.8392 28.7743 32.4497 28.8108 33.0676 28.8108C35.7359 28.8108 38.1027 28.1565 39.7568 27.0947V28.2027ZM15.4324 30.7434C17.0865 31.8051 19.4532 32.4595 22.1216 32.4595C24.79 32.4595 27.1568 31.8051 28.8108 30.7434V31.8514C28.8108 33.2865 25.9503 34.8919 22.1216 34.8919C18.293 34.8919 15.4324 33.2865 15.4324 31.8514V30.7434ZM39.7568 23.3378C39.7568 24.773 36.8962 26.3784 33.0676 26.3784C32.4169 26.3784 31.7784 26.3322 31.163 26.2422C30.9282 25.1634 30.19 24.1941 29.0881 23.4169C30.2849 23.7574 31.6324 23.9459 33.0676 23.9459C35.7359 23.9459 38.1027 23.2916 39.7568 22.2299V23.3378ZM33.0676 15.4324C36.8962 15.4324 39.7568 17.0378 39.7568 18.473C39.7568 19.9081 36.8962 21.5135 33.0676 21.5135C29.2389 21.5135 26.3784 19.9081 26.3784 18.473C26.3784 17.0378 29.2389 15.4324 33.0676 15.4324ZM22.1216 23.9459C25.9503 23.9459 28.8108 25.5514 28.8108 26.9865C28.8108 28.4216 25.9503 30.027 22.1216 30.027C18.293 30.027 15.4324 28.4216 15.4324 26.9865C15.4324 25.5514 18.293 23.9459 22.1216 23.9459ZM22.1216 39.7568C18.293 39.7568 15.4324 38.1514 15.4324 36.7162V35.6082C17.0865 36.67 19.4532 37.3243 22.1216 37.3243C24.79 37.3243 27.1568 36.67 28.8108 35.6082V36.7162C28.8108 38.1514 25.9503 39.7568 22.1216 39.7568ZM33.0676 36.1081C32.4449 36.1081 31.8343 36.0655 31.2432 35.9828V33.5699C31.8392 33.6392 32.4497 33.6757 33.0676 33.6757C35.7359 33.6757 38.1027 33.0214 39.7568 31.9596V33.0676C39.7568 34.5027 36.8962 36.1081 33.0676 36.1081Z" fill="#FFC342"/>
</svg>
