<svg width="52" height="52" viewBox="0 0 52 52" fill="none" xmlns="http://www.w3.org/2000/svg">
<rect width="52" height="52" rx="16" fill="#F6DBC6"/>
<path fill-rule="evenodd" clip-rule="evenodd" d="M17.3047 16.1679C18.2097 15.0813 19.9785 15.7214 19.9785 17.1357V37.4883C19.9784 38.3231 19.3016 38.9999 18.4668 39H17.5117C16.6768 39 16.0002 38.3231 16 37.4883V18.2822C16.0001 17.929 16.1237 17.5869 16.3496 17.3154L17.3047 16.1679ZM21.6758 14.5166C21.6758 13.4106 22.8248 12.6789 23.8271 13.1465L35.126 18.417C35.6584 18.6653 35.999 19.1996 35.999 19.7871V37.4883C35.9989 38.3231 35.3221 38.9998 34.4873 39H23.1875C22.3527 38.9999 21.6759 38.3231 21.6758 37.4883V14.5166Z" fill="#C37437"/>
</svg>
