<svg width="124" height="63" viewBox="0 0 124 63" fill="none" xmlns="http://www.w3.org/2000/svg">
<path d="M52.2224 13.7004C51.0816 15.4676 49.7573 17.1144 48.2497 18.6406C46.7829 20.1668 45.0715 21.5324 43.1157 22.7373C43.0342 23.7816 42.8713 24.8258 42.6268 25.8701C42.3823 26.9143 42.0767 28.0188 41.71 29.1836C41.0988 31.0713 40.2024 32.9992 39.0208 34.9672C37.8799 36.8951 36.5353 38.7225 34.9869 40.4496C33.4386 42.1766 31.7273 43.7631 29.853 45.209C27.9786 46.6147 26.0025 47.7594 23.9244 48.643C21.8871 49.5266 19.7683 50.0688 17.5681 50.2696C15.4085 50.4704 13.249 50.2294 11.0895 49.5467C9.3374 48.9844 7.8298 47.9803 6.56668 46.5344C5.30356 45.0483 4.3664 43.2811 3.75521 41.2327C3.14402 39.1844 2.89955 36.9151 3.02179 34.425C3.14402 31.8947 3.73484 29.3242 4.79423 26.7135C3.49036 25.8299 2.4106 24.7656 1.55493 23.5205C0.740017 22.2754 0.251067 20.8094 0.088083 19.1226C-0.197138 16.2308 0.210321 13.6402 1.31046 11.3508C2.4106 9.02135 3.97931 7.05332 6.01661 5.44677C8.0539 3.80005 10.3968 2.5148 13.0453 1.59104C15.7345 0.667268 18.4848 0.145138 21.2963 0.0246454C24.1078 -0.0958446 26.8581 0.225467 29.5474 0.988579C32.2773 1.71153 34.6813 2.91644 36.7594 4.60332C38.8782 6.25004 40.5487 8.39881 41.7711 11.0496C42.9935 13.7004 43.5232 16.8935 43.3602 20.6287C45.0308 19.5443 46.5791 18.3795 48.0052 17.1344C49.4314 15.8894 50.5315 14.5238 51.3057 13.0377C51.4279 12.8369 51.5705 12.6963 51.7335 12.616C51.9372 12.4955 52.1002 12.4554 52.2224 12.4955C52.3854 12.5357 52.4873 12.6562 52.528 12.857C52.5688 13.0578 52.4669 13.339 52.2224 13.7004ZM39.632 22.5566C39.9987 18.5803 39.7135 15.2066 38.7763 12.4353C37.8391 9.6238 36.4945 7.37463 34.7425 5.68775C32.9904 3.9607 30.9327 2.7357 28.5695 2.01275C26.2469 1.28981 23.8633 1.00866 21.4186 1.16931C18.9738 1.28981 16.5698 1.83202 14.2065 2.79595C11.884 3.71972 9.84672 4.98488 8.09465 6.59143C6.38332 8.19799 5.07945 10.1058 4.18304 12.3148C3.28663 14.5238 3.04216 16.9738 3.44962 19.6648C3.69409 21.5525 4.50901 23.0787 5.89437 24.2434C6.46481 23.0787 7.21861 21.7533 8.15577 20.2672C9.09293 18.7812 10.1727 17.3152 11.3951 15.8693C12.6174 14.3832 13.9417 12.9976 15.3678 11.7123C16.8346 10.3869 18.3422 9.34266 19.8906 8.57954C21.4389 7.77627 23.0076 7.31438 24.5967 7.19389C26.1858 7.03324 27.7545 7.37463 29.3029 8.21807C29.7511 8.45905 29.8733 8.70004 29.6696 8.94102C29.5066 9.14184 29.2214 9.182 28.8139 9.06151C27.5508 8.65987 26.2266 8.67995 24.8412 9.12176C23.4966 9.56356 22.152 10.2664 20.8074 11.2304C19.5035 12.1943 18.22 13.339 16.9569 14.6644C15.7345 15.9898 14.5936 17.3553 13.5342 18.7611C12.5156 20.1668 11.5988 21.5525 10.7839 22.918C10.0097 24.2434 9.41889 25.368 9.01143 26.2918C10.8043 27.1754 12.9434 27.7377 15.4289 27.9787C17.9144 28.1795 20.5221 28.0992 23.2521 27.7377C26.0228 27.3762 28.8139 26.7537 31.6254 25.8701C34.4776 24.9865 37.1465 23.882 39.632 22.5566ZM39.2653 24.6652C36.739 25.9906 34.0702 27.0951 31.2587 27.9787C28.4472 28.8221 25.6561 29.4045 22.8854 29.7258C20.1554 30.0471 17.507 30.1074 14.94 29.9065C12.373 29.7057 10.0912 29.2037 8.09465 28.4004C7.36122 30.2881 6.83153 32.216 6.50556 34.184C6.17959 36.152 6.11847 38.0196 6.3222 39.7868C6.56668 41.5139 7.076 43.0803 7.85017 44.486C8.66509 45.8516 9.80598 46.8958 11.2728 47.6188C13.0656 48.5024 14.8585 48.9241 16.6513 48.884C18.4848 48.8438 20.2777 48.4422 22.0297 47.679C23.8226 46.9561 25.5339 45.952 27.1637 44.6668C28.7936 43.3413 30.3012 41.8553 31.6865 40.2086C33.0719 38.5217 34.3146 36.7143 35.4148 34.7864C36.5556 32.8586 37.4724 30.9106 38.1651 28.9426C38.4096 28.2598 38.6337 27.557 38.8374 26.834C39.0412 26.0709 39.1838 25.3479 39.2653 24.6652Z" fill="black"/>
<path d="M37.2841 59.8487C36.673 61.1339 36.1025 61.9974 35.5728 62.4393C35.0024 62.8811 34.2078 63.0618 33.1892 62.9815C32.7817 62.9413 32.3743 62.861 31.9668 62.7405C31.5186 62.62 31.0704 62.5999 30.6222 62.6802C30.8667 62.4392 31.3352 61.7364 32.0279 60.5716C32.7206 59.447 33.5151 58.0413 34.4116 56.3544C35.308 54.7077 36.2655 52.9003 37.2841 50.9323C38.3028 48.9643 39.2399 47.0364 40.0956 45.1487C40.992 43.261 41.7458 41.534 42.357 39.9676C43.0089 38.361 43.4368 37.0959 43.6405 36.1721C43.3145 36.6942 42.9478 37.0356 42.5404 37.1963C42.1329 37.3168 42.031 37.1561 42.2348 36.7143C42.3978 36.393 42.6015 35.9512 42.846 35.3889C43.0904 34.8266 43.2942 34.3647 43.4571 34.0033C43.7424 33.3606 43.9868 32.6176 44.1906 31.7742C44.435 30.9307 44.5777 30.1274 44.6184 29.3643C44.6999 28.6012 44.6795 27.9586 44.5573 27.4365C44.435 26.8742 44.1906 26.5529 43.8239 26.4725C44.2721 26.3922 44.6999 26.3119 45.1074 26.2316C45.4333 26.1512 45.7593 26.1111 46.0853 26.1111C46.452 26.0709 46.6964 26.0307 46.8187 25.9906C47.2669 25.9504 47.6336 25.9303 47.9188 25.9303C48.204 25.8902 48.4281 25.9303 48.5911 26.0508C48.7541 26.1713 48.856 26.4324 48.8967 26.834C48.9782 27.1955 49.019 27.7377 49.019 28.4606C49.019 29.0631 48.9171 29.7861 48.7134 30.6295C48.5504 31.4328 48.3466 32.2762 48.1022 33.1598C47.8577 34.0434 47.5929 34.9069 47.3076 35.7504C47.0224 36.5938 46.7576 37.3368 46.5131 37.9795C47.1243 37.2164 47.8984 36.3328 48.8356 35.3287C49.7728 34.2844 50.7099 33.3606 51.6471 32.5574C52.3805 31.9147 53.2769 31.2319 54.3363 30.509C55.4364 29.7459 56.5366 29.0832 57.6367 28.5209C58.7369 27.9184 59.7555 27.4565 60.6927 27.1352C61.6706 26.8139 62.4244 26.7336 62.9541 26.8943C61.7317 29.0631 60.6112 31.1315 59.5925 33.0996C59.1443 33.943 58.6961 34.8065 58.2479 35.6901C57.8404 36.5737 57.4534 37.4373 57.0866 38.2807C56.7199 39.084 56.394 39.8471 56.1087 40.57C55.8643 41.293 55.7013 41.9155 55.6198 42.4377C55.3753 43.6827 55.3753 44.5061 55.6198 44.9077C55.8643 45.2692 56.1902 45.4499 56.5977 45.4499C57.3719 45.4499 58.1868 45.0282 59.0424 44.1848C59.8981 43.3413 60.713 42.3573 61.4872 41.2327C62.2614 40.068 62.9541 38.9032 63.5652 37.7385C64.1764 36.5737 64.645 35.6701 64.971 35.0274C65.2154 34.5053 65.4803 34.3246 65.7655 34.4852C66.0915 34.6057 66.1119 34.9672 65.8266 35.5696C65.3784 36.4934 64.808 37.5979 64.1153 38.8832C63.4634 40.1684 62.7096 41.4135 61.8539 42.6184C60.9983 43.7831 60.0611 44.7872 59.0424 45.6307C58.0238 46.4741 56.9237 46.8958 55.742 46.8958C55.2123 46.8958 54.6623 46.7954 54.0918 46.5946C53.5214 46.3938 53.0324 46.0323 52.625 45.5102C52.2583 44.9479 52.0342 44.2249 51.9527 43.3413C51.8712 42.4176 52.0545 41.2528 52.5027 39.8471C52.7472 39.0438 53.1547 38.1401 53.7251 37.136C54.2955 36.0918 55.0086 34.8869 55.8643 33.5213C56.231 32.9188 56.4347 32.3967 56.4755 31.9549C56.5162 31.5131 56.3532 31.252 55.9865 31.1717C55.6605 31.0914 55.1308 31.252 54.3974 31.6537C53.664 32.0553 52.7065 32.7983 51.5248 33.8828C50.9951 34.3647 50.3839 34.927 49.6913 35.5696C49.0393 36.2123 48.3263 37.0155 47.5521 37.9795C46.8187 38.9032 46.0649 40.0077 45.2907 41.293C44.5165 42.5782 43.7627 44.0844 43.0293 45.8114L37.2841 59.8487Z" fill="black"/>
<path d="M85.7146 35.5696C85.2257 36.6139 84.6552 37.7787 84.0033 39.0639C83.3513 40.309 82.6179 41.4938 81.803 42.6184C80.9881 43.743 80.0917 44.6868 79.1138 45.4499C78.1359 46.2131 77.0969 46.5946 75.9967 46.5946C75.304 46.5946 74.6928 46.434 74.1631 46.1127C73.6335 45.7512 73.226 45.2491 72.9408 44.6065C72.6963 43.9237 72.5741 43.1004 72.5741 42.1364C72.5741 41.1725 72.7778 40.0881 73.1852 38.8832C72.6555 39.8069 72.0647 40.7307 71.4128 41.6545C70.8016 42.5381 70.1293 43.3614 69.3959 44.1245C68.7032 44.8475 67.9698 45.4499 67.1956 45.9319C66.4214 46.3737 65.6676 46.5946 64.9342 46.5946C64.6082 46.5946 64.2415 46.5745 63.8341 46.5344C63.4674 46.454 63.1006 46.3135 62.7339 46.1127C62.3672 45.9118 62.0209 45.6307 61.6949 45.2692C61.4097 44.9077 61.206 44.4459 61.0837 43.8836C60.9615 43.2409 60.9411 42.6184 61.0226 42.0159C61.1041 41.4135 61.2467 40.8311 61.4504 40.2688C61.6949 39.6664 61.9598 39.1041 62.245 38.5819C62.5709 38.0196 62.8765 37.4573 63.1618 36.8951C62.958 36.8951 62.7543 36.8348 62.5506 36.7143C62.3876 36.5938 62.408 36.3328 62.6117 35.9311C62.8154 35.6098 62.9988 35.2684 63.1618 34.9069C63.3247 34.5455 63.5081 34.184 63.7118 33.8225C64.323 32.6578 64.9342 31.493 65.5454 30.3283C66.1566 29.1635 66.6863 28.1193 67.1345 27.1955C67.379 26.7135 67.6846 26.3922 68.0513 26.2316C68.4587 26.0307 68.9477 25.9303 69.5181 25.9303H73.2464C72.8797 26.1713 72.5537 26.4324 72.2685 26.7135C71.9832 26.9545 71.6777 27.2557 71.3517 27.6172C71.0665 27.9787 70.7609 28.4205 70.4349 28.9426C70.1089 29.4647 69.7422 30.1475 69.3348 30.991C68.7643 32.0352 68.255 33.0393 67.8068 34.0033C67.3586 34.8467 66.9308 35.7102 66.5233 36.5938C66.1158 37.4774 65.7695 38.2004 65.4843 38.7627C64.7508 40.3291 64.3434 41.6344 64.2619 42.6786C64.1804 43.7229 64.323 44.4659 64.6897 44.9077C65.0972 45.3094 65.688 45.3696 66.4622 45.0885C67.2364 44.7672 68.1124 44.0442 69.0903 42.9196C69.946 41.9557 70.7812 40.811 71.5962 39.4856C72.4518 38.1602 73.2667 36.7946 74.0409 35.3889C74.8151 33.943 75.5485 32.5172 76.2412 31.1115C76.9746 29.7057 77.6265 28.4004 78.197 27.1955C78.4415 26.7135 78.7471 26.3922 79.1138 26.2316C79.5212 26.0307 80.0102 25.9303 80.5806 25.9303H83.881C83.4328 26.2918 83.0458 26.6332 82.7198 26.9545C82.3938 27.2356 82.0679 27.5971 81.7419 28.0389C81.4567 28.4406 81.1511 28.9627 80.8251 29.6053C80.4991 30.2078 80.112 30.9709 79.6638 31.8947C79.2156 32.7381 78.7674 33.6217 78.3192 34.5455C77.9118 35.4291 77.5043 36.3127 77.0969 37.1963C76.7301 38.0397 76.4042 38.843 76.1189 39.6061C75.8337 40.3291 75.6504 40.9516 75.5689 41.4737C75.2837 42.759 75.2837 43.6827 75.5689 44.245C75.8949 44.7672 76.2819 45.0483 76.7301 45.0885C77.4636 45.0885 78.197 44.7672 78.9304 44.1245C79.7046 43.4819 80.438 42.6786 81.1307 41.7147C81.8234 40.7106 82.4753 39.6262 83.0865 38.4614C83.7384 37.2565 84.3292 36.1119 84.8589 35.0274C85.1034 34.5053 85.3683 34.3246 85.6535 34.4852C85.9795 34.6057 85.9998 34.9672 85.7146 35.5696Z" fill="black"/>
<path d="M104.504 35.3287C104.259 35.891 103.852 36.7746 103.281 37.9795C102.752 39.1844 102.079 40.3893 101.265 41.5942C100.45 42.7991 99.4921 43.8635 98.392 44.7872C97.3326 45.711 96.1713 46.1729 94.9082 46.1729C93.9711 46.1729 93.1765 46.0323 92.5246 45.7512C91.9134 45.4299 91.4041 45.0483 90.9966 44.6065C90.141 45.2491 89.2649 45.7713 88.3685 46.1729C87.4721 46.5344 86.5757 46.695 85.6793 46.6549C84.4976 46.6147 83.5605 46.2733 82.8678 45.6307C82.2159 44.9881 81.7677 44.1647 81.5232 43.1606C81.3195 42.1163 81.3195 40.9516 81.5232 39.6664C81.7269 38.3409 82.114 37.0155 82.6845 35.6901C83.2956 34.3246 84.0494 33.0192 84.9458 31.7742C85.8423 30.5291 86.7998 29.4447 87.8184 28.5209C88.8778 27.5971 89.9576 26.8742 91.0577 26.352C92.1579 25.7897 93.2376 25.5287 94.297 25.5688C95.4379 25.5688 96.3547 25.8902 97.0474 26.5328C97.7401 27.1754 98.1883 28.0188 98.392 29.0631C98.6365 30.1074 98.6568 31.2922 98.4531 32.6176C98.2494 33.9028 97.8623 35.2082 97.2919 36.5336C96.8436 37.5778 96.1713 38.7627 95.2749 40.0881C94.3785 41.3733 93.3395 42.5582 92.1579 43.6426C92.6876 44.6467 93.6451 45.1487 95.0304 45.1487C96.0084 45.1487 96.9251 44.7471 97.7808 43.9438C98.6772 43.1405 99.4921 42.1766 100.226 41.052C100.959 39.9274 101.611 38.7827 102.181 37.618C102.752 36.4532 103.22 35.5094 103.587 34.7864C103.75 34.4651 103.995 34.3647 104.321 34.4852C104.646 34.6057 104.708 34.8869 104.504 35.3287ZM95.5805 27.557C94.9286 27.3963 94.2155 27.4967 93.4414 27.8582C92.6672 28.1795 91.893 28.7217 91.1188 29.4848C90.3447 30.2078 89.5909 31.0914 88.8575 32.1356C88.124 33.1397 87.4721 34.2442 86.9016 35.4492C86.2905 36.6942 85.8015 37.8791 85.4348 39.0037C85.1088 40.0881 84.9051 41.0721 84.8236 41.9557C84.7421 42.8393 84.8032 43.5823 85.007 44.1848C85.2107 44.7471 85.5978 45.1086 86.1682 45.2692C86.7387 45.4299 87.3906 45.3696 88.124 45.0885C88.8575 44.8073 89.5909 44.3655 90.3243 43.7631C89.9983 43.2811 89.7539 42.7791 89.5909 42.2569C89.4279 41.7348 89.3464 41.2528 89.3464 40.811C89.3871 40.1282 89.5501 39.5258 89.8354 39.0037C90.1613 38.4815 90.7114 38.2205 91.4856 38.2205C92.0153 38.2205 92.4431 38.4012 92.7691 38.7627C93.1358 39.1241 93.3191 39.5459 93.3191 40.0278C93.3191 40.1483 93.2988 40.2688 93.258 40.3893C93.258 40.4696 93.2376 40.57 93.1969 40.6905C93.8896 39.6864 94.5211 38.602 95.0916 37.4373C95.7028 36.1922 96.1713 35.0073 96.4973 33.8828C96.8233 32.7582 97.0066 31.7541 97.0474 30.8705C97.0881 29.9869 96.9863 29.2639 96.7418 28.7016C96.4973 28.0992 96.1102 27.7176 95.5805 27.557Z" fill="black"/>
<path d="M103.768 37.9795C103.524 38.5016 103.32 38.9233 103.157 39.2446C102.994 39.5659 102.811 39.9676 102.607 40.4496C102.403 40.9315 102.118 41.5741 101.751 42.3774C101.384 43.1807 100.875 44.3254 100.223 45.8114C99.9787 46.2532 99.6935 46.5143 99.3675 46.5946C99.0415 46.6749 98.5526 46.7151 97.9006 46.7151C97.4524 46.7553 97.0857 46.7754 96.8005 46.7754C96.4745 46.7754 96.1486 46.8758 95.8226 47.0766C97.2895 44.1848 98.6748 41.3332 99.9787 38.5217C101.323 35.7102 102.749 32.9389 104.257 30.2078C105.031 28.7619 105.703 27.7578 106.274 27.1955C106.844 26.6332 107.619 26.3721 108.596 26.4123C109.004 26.4525 109.411 26.5328 109.819 26.6533C110.267 26.7336 110.715 26.7336 111.163 26.6533C110.715 26.8943 110.165 27.4164 109.513 28.2197C108.902 29.0229 108.25 29.9668 107.557 31.0512C106.905 32.1356 106.233 33.3004 105.541 34.5455C104.889 35.7504 104.298 36.8951 103.768 37.9795ZM114.586 37.9795C114.301 38.5418 113.995 39.2446 113.669 40.0881C113.384 40.8914 113.18 41.6946 113.058 42.4979C112.936 43.261 112.956 43.9237 113.119 44.486C113.323 45.0483 113.792 45.3295 114.525 45.3295C115.299 45.3295 116.094 44.9077 116.909 44.0643C117.764 43.2209 118.559 42.2368 119.292 41.1123C120.026 39.9877 120.678 38.8631 121.248 37.7385C121.859 36.5737 122.328 35.6701 122.654 35.0274C122.898 34.5053 123.163 34.3246 123.448 34.4852C123.774 34.6057 123.795 34.9672 123.509 35.5696C123.061 36.4934 122.491 37.5979 121.798 38.8832C121.146 40.1684 120.392 41.4135 119.537 42.6184C118.681 43.7831 117.744 44.7872 116.725 45.6307C115.707 46.4741 114.606 46.8958 113.425 46.8958C112.936 46.8958 112.447 46.7754 111.958 46.5344C111.51 46.2532 111.082 45.8315 110.674 45.2692C110.349 44.7471 110.084 43.9639 109.88 42.9196C109.676 41.8754 109.758 40.8913 110.124 39.9676C110.613 38.9635 111.041 38.0799 111.408 37.3168C111.775 36.5135 112.141 35.7504 112.508 35.0274C112.875 34.3045 113.262 33.5615 113.669 32.7983C114.077 32.0352 114.545 31.1717 115.075 30.2078C115.849 28.7619 116.522 27.7578 117.092 27.1955C117.662 26.6332 118.437 26.3721 119.414 26.4123C119.822 26.4525 120.229 26.5328 120.637 26.6533C121.085 26.7336 121.533 26.7336 121.981 26.6533C121.533 26.8943 120.983 27.4164 120.331 28.2197C119.72 29.0229 119.068 29.9668 118.375 31.0512C117.724 32.1356 117.051 33.3004 116.359 34.5455C115.707 35.7504 115.116 36.8951 114.586 37.9795ZM113.547 34.666C113.303 35.3487 112.875 36.0114 112.264 36.6541C111.652 37.2565 110.939 37.5176 110.124 37.4373C109.391 37.3971 108.658 37.1963 107.924 36.8348C107.231 36.4332 106.539 36.2123 105.846 36.1721C105.439 36.1319 105.072 36.2323 104.746 36.4733C104.42 36.6741 104.176 36.9352 104.013 37.2565C103.972 37.3369 103.809 37.377 103.524 37.377C103.238 37.377 103.136 37.3168 103.218 37.1963C103.544 36.5938 103.992 35.9914 104.563 35.3889C105.174 34.7864 105.887 34.5254 106.702 34.6057C107.476 34.6459 108.189 34.8467 108.841 35.2082C109.534 35.5295 110.226 35.7303 110.919 35.8106C111.408 35.891 111.795 35.8106 112.08 35.5696C112.365 35.3287 112.61 35.0274 112.814 34.666C112.895 34.5856 113.058 34.5455 113.303 34.5455C113.547 34.5455 113.629 34.5856 113.547 34.666Z" fill="black"/>
</svg>
