<svg width="20" height="20" viewBox="0 0 20 20" fill="none" xmlns="http://www.w3.org/2000/svg">
<path d="M9.99987 6.00197C9.47582 6.00197 8.96354 6.15839 8.52781 6.45145C8.09208 6.74452 7.75247 7.16106 7.55193 7.6484C7.35138 8.13575 7.29891 8.67201 7.40115 9.18938C7.50338 9.70674 7.75574 10.182 8.1263 10.555C8.49685 10.928 8.96897 11.182 9.48295 11.2849C9.99693 11.3878 10.5297 11.335 11.0138 11.1331C11.498 10.9313 11.9118 10.5894 12.203 10.1508C12.4941 9.71221 12.6495 9.19655 12.6495 8.66905C12.6495 7.9617 12.3704 7.28331 11.8734 6.78314C11.3765 6.28296 10.7026 6.00197 9.99987 6.00197ZM9.99987 10.0026C9.73785 10.0026 9.48171 9.92439 9.26384 9.77786C9.04598 9.63132 8.87617 9.42305 8.7759 9.17938C8.67563 8.93571 8.64939 8.66758 8.70051 8.40889C8.75163 8.15021 8.87781 7.9126 9.06308 7.7261C9.24836 7.5396 9.48442 7.41259 9.74141 7.36113C9.9984 7.30968 10.2648 7.33609 10.5069 7.43702C10.7489 7.53795 10.9558 7.70888 11.1014 7.92818C11.247 8.14748 11.3247 8.4053 11.3247 8.66905C11.3247 9.02273 11.1851 9.36192 10.9367 9.61201C10.6882 9.8621 10.3512 10.0026 9.99987 10.0026Z" fill="#C37437"/>
<path d="M9.99988 18.0039C9.44209 18.0067 8.89174 17.875 8.3949 17.6198C7.89807 17.3646 7.46921 16.9933 7.14423 16.537C4.61979 13.0317 3.33936 10.3967 3.33936 8.70439C3.33936 6.92628 4.04109 5.22099 5.29018 3.96367C6.53927 2.70635 8.2334 2 9.99988 2C11.7664 2 13.4605 2.70635 14.7096 3.96367C15.9587 5.22099 16.6604 6.92628 16.6604 8.70439C16.6604 10.3967 15.38 13.0317 12.8555 16.537C12.5305 16.9933 12.1017 17.3646 11.6049 17.6198C11.108 17.875 10.5577 18.0067 9.99988 18.0039ZM9.99988 3.45556C8.61704 3.45715 7.2913 4.0108 6.31349 4.99505C5.33568 5.97931 4.78565 7.31378 4.78407 8.70573C4.78407 10.0459 6.03801 12.5243 8.31405 15.6842C8.50727 15.9521 8.76076 16.1701 9.05377 16.3204C9.34678 16.4708 9.67099 16.5492 9.99988 16.5492C10.3288 16.5492 10.653 16.4708 10.946 16.3204C11.239 16.1701 11.4925 15.9521 11.6857 15.6842C13.9617 12.5243 15.2157 10.0459 15.2157 8.70573C15.2141 7.31378 14.6641 5.97931 13.6863 4.99505C12.7085 4.0108 11.3827 3.45715 9.99988 3.45556Z" fill="#C37437"/>
</svg>
