<svg width="32" height="32" viewBox="0 0 32 32" fill="none" xmlns="http://www.w3.org/2000/svg">
<g clip-path="url(#clip0_422_343)">
<path d="M24.0102 0H7.98979C3.57715 0 0 3.57715 0 7.98979V24.0102C0 28.4228 3.57715 32 7.98979 32H24.0102C28.4228 32 32 28.4228 32 24.0102V7.98979C32 3.57715 28.4228 0 24.0102 0Z" fill="url(#paint0_linear_422_343)"/>
<path d="M24.0102 0H7.98979C3.57715 0 0 3.57715 0 7.98979V24.0102C0 28.4228 3.57715 32 7.98979 32H24.0102C28.4228 32 32 28.4228 32 24.0102V7.98979C32 3.57715 28.4228 0 24.0102 0Z" fill="url(#paint1_radial_422_343)"/>
<path fill-rule="evenodd" clip-rule="evenodd" d="M16.2172 26.0223C14.2302 26.0223 13.3068 25.7322 11.7018 24.5719C10.6866 25.8772 7.47162 26.8973 7.33141 25.152C7.33141 23.8419 7.04133 22.7348 6.71258 21.5262C6.321 20.0371 5.87622 18.3789 5.87622 15.9762C5.87622 10.2376 10.585 5.92041 16.1641 5.92041C21.7479 5.92041 26.1231 10.4503 26.1231 16.0293C26.1419 21.5221 21.7099 25.993 16.2172 26.0223ZM16.2994 10.8806C13.5824 10.7404 11.4649 12.621 10.996 15.5701C10.6092 18.0115 11.2957 20.9847 11.8807 21.1394C12.1611 21.2071 12.8669 20.6366 13.3068 20.1967C14.0343 20.6992 14.8814 21.0011 15.7628 21.0717C18.578 21.2072 20.9836 19.0639 21.1726 16.2518C21.2826 13.4336 19.1151 11.0467 16.2994 10.8854V10.8806Z" fill="white"/>
</g>
<defs>
<linearGradient id="paint0_linear_422_343" x1="3.7711" y1="24.3372" x2="32" y2="16" gradientUnits="userSpaceOnUse">
<stop stop-color="#44CCFF"/>
<stop offset="0.662" stop-color="#5533EE"/>
<stop offset="1" stop-color="#9933DD"/>
</linearGradient>
<radialGradient id="paint1_radial_422_343" cx="0" cy="0" r="1" gradientUnits="userSpaceOnUse" gradientTransform="translate(-0.761305 -14.0539) rotate(51.356) scale(38.8325 16)">
<stop stop-color="#0000FF"/>
<stop offset="1" stop-opacity="0"/>
</radialGradient>
<clipPath id="clip0_422_343">
<rect width="32" height="32" fill="white"/>
</clipPath>
</defs>
</svg>
