<svg width="52" height="52" viewBox="0 0 52 52" fill="none" xmlns="http://www.w3.org/2000/svg">
<rect width="52" height="52" rx="16" fill="#F6DBC6"/>
<path d="M13.2246 27.9708C13.8484 27.5359 14.706 27.9799 14.7061 28.7383V40.0632C14.7059 40.5809 14.2844 41 13.7646 41H10.9414C10.4217 41 10.0001 40.5809 10 40.0632V30.7072C10 30.4013 10.1498 30.1142 10.4014 29.9387L13.2246 27.9708ZM26.4707 11C26.7305 11.0001 26.9414 11.21 26.9414 11.4689V13.8123H29.2939C29.5538 13.8123 29.7645 14.0223 29.7646 14.2811V15.2189C29.7646 15.4777 29.5538 15.6877 29.2939 15.6877H26.9414V19.0623L34.9541 23.8521C35.2375 24.0215 35.411 24.3265 35.4111 24.6556V40.0623C35.4111 40.58 34.9895 41 34.4697 41H30.7061C30.1863 40.9999 29.7646 40.58 29.7646 40.0623V35.3755C29.7645 33.3046 28.0789 31.6257 26 31.6255C23.921 31.6257 22.2345 33.3046 22.2344 35.3755V40.0623C22.2344 40.5799 21.8136 40.9998 21.2939 41H17.5293C17.0097 40.9998 16.5879 40.5799 16.5879 40.0623V24.6556C16.588 24.3265 16.7616 24.0215 17.0449 23.8521L25.0586 19.0613V15.6877H22.7061C22.4462 15.6877 22.2354 15.4777 22.2354 15.2189V14.2811C22.2355 14.0223 22.4462 13.8123 22.7061 13.8123H25.0586V11.4689C25.0586 11.21 25.2695 11.0001 25.5293 11H26.4707ZM37.2939 28.7383C37.294 27.9799 38.1516 27.5359 38.7754 27.9708L41.5986 29.9387C41.8502 30.1142 42 30.4013 42 30.7072V40.0632C41.9999 40.5809 41.5783 41 41.0586 41H38.2354C37.7156 41 37.2941 40.5809 37.2939 40.0632V28.7383Z" fill="#C37437"/>
</svg>
