<svg width="32" height="32" viewBox="0 0 32 32" fill="none" xmlns="http://www.w3.org/2000/svg">
<path d="M0 15.36C0 8.1192 0 4.49884 2.24942 2.24942C4.49884 0 8.1192 0 15.36 0H16.64C23.8808 0 27.5011 0 29.7506 2.24942C32 4.49884 32 8.1192 32 15.36V16.64C32 23.8808 32 27.5011 29.7506 29.7506C27.5011 32 23.8808 32 16.64 32H15.36C8.1192 32 4.49884 32 2.24942 29.7506C0 27.5011 0 23.8808 0 16.64V15.36Z" fill="#0077FF"/>
<path d="M16.9537 22.66C9.66042 22.66 5.50048 17.66 5.32715 9.33997H8.98048C9.10048 15.4466 11.7937 18.0333 13.9271 18.5666V9.33997H17.3672V14.6066C19.4739 14.38 21.6869 11.98 22.4336 9.33997H25.8737C25.3003 12.5933 22.9003 14.9933 21.1937 15.98C22.9003 16.78 25.6338 18.8733 26.6738 22.66H22.887C22.0737 20.1266 20.0472 18.1666 17.3672 17.9V22.66H16.9537Z" fill="white"/>
</svg>
