<svg width="24" height="24" viewBox="0 0 24 24" fill="none" xmlns="http://www.w3.org/2000/svg">
<rect width="24" height="24" rx="10" fill="#308D41"/>
<path d="M18.4712 14.7814C18.8098 15.121 19 15.5809 19 16.0604C19 16.54 18.8098 16.9999 18.4712 17.3395L17.9395 17.9524C13.1538 22.5338 1.50797 10.8918 6.01904 6.09122L6.69102 5.50693C7.03097 5.17779 7.48684 4.9957 7.96002 5.00008C8.4332 5.00445 8.88563 5.19493 9.21944 5.5303C9.23755 5.54842 10.3203 6.95481 10.3203 6.95481C10.6416 7.29231 10.8205 7.74064 10.8197 8.2066C10.8189 8.67256 10.6386 9.1203 10.3162 9.45675L9.63957 10.3075C10.014 11.2173 10.5646 12.0441 11.2596 12.7405C11.9547 13.4369 12.7805 13.9891 13.6896 14.3654L14.5456 13.6847C14.8822 13.3626 15.3299 13.1825 15.7957 13.1818C16.2616 13.1812 16.7098 13.36 17.0472 13.6812C17.0472 13.6812 18.4531 14.7633 18.4712 14.7814ZM17.6672 15.631C17.6672 15.631 16.2689 14.5553 16.2507 14.5372C16.1304 14.4178 15.9677 14.3509 15.7982 14.3509C15.6286 14.3509 15.466 14.4178 15.3456 14.5372C15.3298 14.5535 14.1512 15.4925 14.1512 15.4925C14.0718 15.5557 13.9773 15.5972 13.877 15.6127C13.7767 15.6283 13.674 15.6175 13.5792 15.5813C12.4014 15.1428 11.3317 14.4564 10.4424 13.5685C9.55305 12.6805 8.86498 11.6119 8.42474 10.4349C8.38571 10.3387 8.37298 10.2339 8.38787 10.1312C8.40276 10.0285 8.44473 9.93166 8.50947 9.85057C8.50947 9.85057 9.4485 8.67146 9.46427 8.65627C9.58363 8.5359 9.65061 8.37325 9.65061 8.20374C9.65061 8.03422 9.58363 7.87157 9.46427 7.7512C9.44616 7.73367 8.3704 6.33429 8.3704 6.33429C8.24821 6.22474 8.08875 6.16607 7.9247 6.17031C7.76064 6.17454 7.60442 6.24137 7.48805 6.35708L6.81607 6.94137C3.51925 10.9052 13.6113 20.4368 17.0852 17.1542L17.6175 16.5407C17.7422 16.4252 17.8172 16.2657 17.8264 16.0959C17.8357 15.9261 17.7786 15.7594 17.6672 15.631Z" fill="white"/>
</svg>
