<svg width="24" height="24" viewBox="0 0 24 24" fill="none" xmlns="http://www.w3.org/2000/svg">
<g clip-path="url(#clip0_240_856)">
<path d="M12.0002 6C11.2091 6 10.4358 6.2346 9.77797 6.67412C9.12017 7.11365 8.60748 7.73836 8.30473 8.46927C8.00198 9.20017 7.92276 10.0044 8.0771 10.7804C8.23145 11.5563 8.61241 12.269 9.17182 12.8284C9.73123 13.3878 10.444 13.7688 11.2199 13.9231C11.9958 14.0775 12.8001 13.9983 13.531 13.6955C14.2619 13.3928 14.8866 12.8801 15.3261 12.2223C15.7657 11.5645 16.0002 10.7911 16.0002 10C16.0002 8.93913 15.5788 7.92172 14.8287 7.17157C14.0785 6.42143 13.0611 6 12.0002 6ZM12.0002 12C11.6047 12 11.218 11.8827 10.8891 11.6629C10.5602 11.4432 10.3039 11.1308 10.1525 10.7654C10.0011 10.3999 9.96151 9.99778 10.0387 9.60982C10.1158 9.22186 10.3063 8.86549 10.586 8.58579C10.8657 8.30608 11.2221 8.1156 11.6101 8.03843C11.998 7.96126 12.4002 8.00087 12.7656 8.15224C13.1311 8.30362 13.4434 8.55996 13.6632 8.88886C13.8829 9.21776 14.0002 9.60444 14.0002 10C14.0002 10.5304 13.7895 11.0391 13.4145 11.4142C13.0394 11.7893 12.5307 12 12.0002 12Z" fill="white"/>
<path d="M12.0001 23.9999C11.158 24.0042 10.3272 23.8067 9.57713 23.4239C8.82709 23.0412 8.17966 22.4843 7.68907 21.7999C3.87807 16.5429 1.94507 12.5909 1.94507 10.0529C1.94507 7.38612 3.00443 4.82859 4.89011 2.94291C6.77579 1.05723 9.33332 -0.00213051 12.0001 -0.00213051C14.6668 -0.00213051 17.2243 1.05723 19.11 2.94291C20.9957 4.82859 22.0551 7.38612 22.0551 10.0529C22.0551 12.5909 20.1221 16.5429 16.3111 21.7999C15.8205 22.4843 15.173 23.0412 14.423 23.4239C13.673 23.8067 12.8421 24.0042 12.0001 23.9999ZM12.0001 2.18087C9.91249 2.18325 7.91109 3.0136 6.43494 4.48974C4.9588 5.96589 4.12845 7.96729 4.12607 10.0549C4.12607 12.0649 6.01907 15.7819 9.45507 20.5209C9.74676 20.9226 10.1294 21.2497 10.5718 21.4751C11.0141 21.7006 11.5036 21.8182 12.0001 21.8182C12.4966 21.8182 12.986 21.7006 13.4284 21.4751C13.8707 21.2497 14.2534 20.9226 14.5451 20.5209C17.9811 15.7819 19.8741 12.0649 19.8741 10.0549C19.8717 7.96729 19.0413 5.96589 17.5652 4.48974C16.0891 3.0136 14.0877 2.18325 12.0001 2.18087Z" fill="white"/>
</g>
<defs>
<clipPath id="clip0_240_856">
<rect width="24" height="24" fill="white"/>
</clipPath>
</defs>
</svg>
