<svg width="56" height="56" viewBox="0 0 56 56" fill="none" xmlns="http://www.w3.org/2000/svg">
<rect width="56" height="56" rx="16" fill="#282828"/>
<path d="M36.7528 15.7493L28.5337 13.0658C28.2646 12.9781 27.9737 12.9781 27.7046 13.0658L19.4854 15.7493C18.1786 16.1743 17.0419 16.9918 16.2367 18.0855C15.4315 19.1793 14.9987 20.4937 15 21.842V28.4151C15 38.1302 27.0696 43.4958 27.5865 43.7193C27.7542 43.7923 27.9356 43.83 28.1191 43.83C28.3026 43.83 28.4841 43.7923 28.6518 43.7193C29.1687 43.4958 41.2383 38.1302 41.2383 28.4151V21.842C41.2395 20.4937 40.8068 19.1793 40.0016 18.0855C39.1964 16.9918 38.0596 16.1743 36.7528 15.7493ZM38.6144 28.4151C38.6144 35.4224 30.3245 40.0185 28.1191 41.1181C25.9112 40.0224 17.6238 35.4403 17.6238 28.4151V21.842C17.6239 21.033 17.8839 20.2447 18.3671 19.5885C18.8503 18.9324 19.5321 18.4417 20.3159 18.1861L28.1191 15.6388L35.9224 18.1861C36.7062 18.4417 37.388 18.9324 37.8712 19.5885C38.3543 20.2447 38.6144 21.033 38.6144 21.842V28.4151Z" fill="#FFC342"/>
<path d="M32.4485 23.6622L26.9542 29.0574L24.0102 26.0515C23.8921 25.925 23.7493 25.823 23.5902 25.7513C23.4312 25.6797 23.2591 25.64 23.0842 25.6345C22.9092 25.629 22.7349 25.6579 22.5715 25.7194C22.4081 25.7809 22.2589 25.8738 22.1327 25.9926C22.0066 26.1114 21.9059 26.2538 21.8368 26.4113C21.7677 26.5687 21.7315 26.7382 21.7303 26.9096C21.7291 27.081 21.7629 27.2509 21.8298 27.4093C21.8967 27.5677 21.9953 27.7114 22.1198 27.8319L25.145 30.9148C25.3707 31.1535 25.6434 31.3448 25.9466 31.4773C26.2499 31.6097 26.5775 31.6806 26.9096 31.6856H26.9529C27.2783 31.6866 27.6007 31.6244 27.9013 31.5024C28.202 31.3805 28.4749 31.2013 28.7043 30.9752L34.3088 25.4876C34.4312 25.368 34.5283 25.2259 34.5947 25.0696C34.661 24.9132 34.6952 24.7456 34.6954 24.5762C34.6956 24.4069 34.6617 24.2392 34.5957 24.0827C34.5297 23.9262 34.4329 23.784 34.3107 23.6641C34.1886 23.5443 34.0435 23.4491 33.8838 23.3842C33.7241 23.3192 33.5529 23.2857 33.38 23.2855C33.2071 23.2853 33.0358 23.3185 32.876 23.3831C32.7161 23.4478 32.5709 23.5426 32.4485 23.6622Z" fill="#FFC342"/>
</svg>
