<svg width="52" height="52" viewBox="0 0 52 52" fill="none" xmlns="http://www.w3.org/2000/svg">
<rect width="52" height="52" rx="16" fill="#F6DBC6"/>
<path fill-rule="evenodd" clip-rule="evenodd" d="M25.1952 11.3926C25.5988 10.8692 26.4011 10.8691 26.8046 11.3926L32.204 18.4033C32.7056 19.0547 32.2317 19.988 31.3993 19.9883H29.6845L36.123 26.4668C36.7456 27.0933 36.2925 28.1455 35.4003 28.1455H32.4843L39.7323 35.8818C40.3258 36.5158 39.8671 37.5391 38.9892 37.5391H27.5126V40.0108C27.5126 40.5568 27.0608 41 26.5038 41H25.496C24.939 41 24.4872 40.5568 24.4872 40.0108V37.5391H13.0107C12.1327 37.5391 11.6739 36.5158 12.2675 35.8818L19.5155 28.1455H16.5995C15.7073 28.1455 15.2542 27.0933 15.8769 26.4668L22.3153 19.9883H20.6005C19.7681 19.9881 19.2942 19.0547 19.7958 18.4033L25.1952 11.3926Z" fill="#C37437"/>
</svg>
