<svg width="24" height="24" viewBox="0 0 24 24" fill="none" xmlns="http://www.w3.org/2000/svg">
<path d="M0 11.52C0 6.0894 0 3.37413 1.68706 1.68706C3.37413 0 6.0894 0 11.52 0H12.48C17.9106 0 20.6258 0 22.3129 1.68706C24 3.37413 24 6.0894 24 11.52V12.48C24 17.9106 24 20.6258 22.3129 22.3129C20.6258 24 17.9106 24 12.48 24H11.52C6.0894 24 3.37413 24 1.68706 22.3129C0 20.6258 0 17.9106 0 12.48V11.52Z" fill="#0077FF"/>
<path d="M12.7151 16.9949C7.24507 16.9949 4.12512 13.2449 3.99512 7.00488H6.73512C6.82512 11.5849 8.84507 13.5249 10.4451 13.9249V7.00488H13.0252V10.9549C14.6052 10.7849 16.265 8.98488 16.825 7.00488H19.405C18.975 9.44488 17.175 11.2449 15.895 11.9849C17.175 12.5849 19.2251 14.1549 20.0051 16.9949H17.165C16.555 15.0949 15.0352 13.6249 13.0252 13.4249V16.9949H12.7151Z" fill="white"/>
</svg>
