<svg width="52" height="52" viewBox="0 0 52 52" fill="none" xmlns="http://www.w3.org/2000/svg">
<rect width="52" height="52" rx="16" fill="#F6DBC6"/>
<path d="M41 30.0688C41 29.9644 41 29.86 40.9924 29.7625C40.893 27.3057 40.2511 24.7793 39.3493 22.3295C39.3187 22.1486 39.2881 22.0233 39.2729 21.9815C39.2805 22.0581 39.2958 22.1346 39.3034 22.2112C39.2805 22.1486 39.2576 22.079 39.2346 22.0163C39.1659 21.6475 39.0971 21.2855 39.013 20.9306C36.8808 11.4444 30.4308 7.81145 23.5834 9.33564C22.1848 9.64187 20.7787 10.1708 19.3801 10.8946C19.3801 10.8946 19.3725 10.8946 19.3649 10.8946C19.0592 11.0617 18.7611 11.2496 18.4784 11.4584C18.379 11.528 18.2797 11.6045 18.1803 11.6811C16.1551 13.3027 14.7872 15.9196 13.893 19.0375C13.8319 19.2603 13.7708 19.483 13.7096 19.7126C13.5415 20.346 13.3963 21.0002 13.2664 21.6683C13.2511 21.7101 13.2358 21.7519 13.2129 21.7936C13.2129 21.7797 13.2129 21.7658 13.2205 21.7519C13.2129 21.7727 13.2052 21.8075 13.1899 21.8562C12.3952 23.7563 11.7226 25.8233 11.3405 27.8486C10.7368 31.0083 10.8591 34.0289 12.334 36.1098C12.3493 36.1725 12.3646 36.2421 12.3722 36.3047C12.7467 36.7989 13.1976 37.2373 13.7402 37.6062C13.7173 37.5575 13.6943 37.5018 13.6714 37.4531C13.7096 37.4809 13.7402 37.5018 13.7784 37.5296C13.8548 37.6967 13.9312 37.8567 14.0077 38.0168C14.6955 39.4018 15.5285 40.3901 16.3462 41.093C16.3462 41.093 16.3462 41.093 16.3462 41.1C16.4608 41.2322 16.5449 41.3505 16.6366 41.4341C16.8124 41.6011 16.9117 41.6985 16.9117 41.6985C16.9117 41.6985 16.82 41.5941 16.6595 41.4062C16.6289 41.3714 16.5984 41.3297 16.5678 41.2809C16.6519 41.3505 16.7359 41.4132 16.82 41.4758C18.3102 42.5894 19.6247 42.7773 19.6935 42.7773C19.6935 42.7773 19.6935 42.7773 19.6935 42.7703C19.3954 42.2623 17.2709 39.9795 17.6148 34.8153C17.6148 34.7736 17.6148 34.7318 17.6224 34.69C17.6454 34.3212 17.6606 33.9523 17.6759 33.5904C17.7065 33.0197 17.7524 32.4629 17.8593 31.9201C18.0963 30.7369 18.5089 29.4911 18.8987 28.5307C19.64 26.8046 20.5418 25.1343 21.1837 23.0951C21.2219 22.9837 21.2525 22.8654 21.2907 22.7471C21.2678 22.9281 21.2448 23.109 21.2219 23.276C21.2219 23.29 21.2219 23.2969 21.2219 23.3108C21.199 23.464 21.1761 23.6031 21.1531 23.7423C20.6258 27.083 19.5788 27.9948 18.8987 28.5237C20.2361 27.8277 21.8639 25.6006 23.3006 22.8724C23.3082 22.8724 23.3159 22.8724 23.3312 22.8724C21.8715 25.6772 20.2208 27.9669 18.8681 28.6768C19.2197 28.6281 19.5712 28.5585 19.9227 28.4541C22.5058 27.7094 24.829 25.5658 26.3651 23.7493C26.4874 23.6031 26.6097 23.457 26.7167 23.3178C27.5497 22.2669 28.0846 21.383 28.2146 21.028C28.2146 21.0211 28.2146 21.0141 28.2222 21.0072C28.2298 20.9724 28.2375 20.9445 28.2451 20.9236C28.2451 20.9376 28.2451 20.9445 28.2451 20.9584C28.1534 21.8354 28.0311 22.9768 27.6796 24.0834C27.2211 25.538 26.3881 26.9438 24.7526 27.6468C26.9077 27.0065 28.3292 25.7607 29.2539 24.5288C29.7506 23.8676 30.1022 23.2064 30.3544 22.6566C30.6066 22.0929 30.7441 21.6335 30.8129 21.383C30.8511 21.2507 30.8664 21.1742 30.8664 21.1742C30.8664 21.1742 35.253 26.6794 34.6722 32.1915C34.6035 32.8248 34.55 33.4094 34.5117 33.9523C34.527 33.8758 34.5423 33.8062 34.5652 33.7296C34.5652 33.7574 34.5576 33.7783 34.55 33.8062C34.5423 33.8549 34.527 33.9036 34.5117 33.9523C34.4965 34.1333 34.4812 34.3003 34.4735 34.4673C34.4506 34.2794 34.443 34.175 34.443 34.175H34.42C34.42 34.175 34.4277 34.3212 34.443 34.5787C34.443 34.6135 34.443 34.6483 34.443 34.6831C34.4277 34.8501 34.42 35.0102 34.4048 35.1703C34.1755 38.2047 34.015 39.9377 32.1579 42.6729C32.1579 42.6729 32.1579 42.6729 32.1579 42.6799C32.0815 42.7842 32.0357 42.8469 32.0357 42.8469L32.051 42.8608C32.051 42.8608 32.051 42.8608 32.0662 42.8469C32.2496 42.8051 32.4407 42.7564 32.6241 42.7007C32.563 42.7494 32.5095 42.7982 32.4713 42.8399C32.3719 42.9304 32.3108 42.9791 32.3108 42.9791L32.3261 43C32.3261 43 32.3872 42.9582 32.4942 42.8747C32.563 42.819 32.6547 42.7564 32.7617 42.6659C32.777 42.6659 32.7999 42.659 32.8152 42.652C33.0368 42.5894 33.2508 42.5198 33.4724 42.4363C33.5565 42.4084 33.6405 42.3736 33.717 42.3458C33.8087 42.311 33.9004 42.2692 33.9921 42.2344C34.0838 42.1927 34.1755 42.1579 34.2672 42.1161C34.6035 41.956 34.9397 41.7751 35.2607 41.5663C35.2378 41.608 35.2072 41.6428 35.1843 41.6776C35.0467 41.8864 34.9703 42.0048 34.9703 42.0048L34.9856 42.0187C34.9856 42.0187 35.0773 41.9143 35.2454 41.7264C35.3218 41.6428 35.4135 41.5315 35.5052 41.3993C36.407 40.7659 37.24 39.9029 37.9125 38.6989C37.989 38.5527 38.073 38.4066 38.1494 38.2465C38.4246 38.0795 38.6233 37.7802 38.8067 37.467C39.2958 36.8406 39.7467 36.1516 40.0065 35.5322C40.7478 33.8131 41.0306 31.9688 40.9924 30.0827L41 30.0688Z" fill="#C37437"/>
</svg>
