<svg width="24" height="24" viewBox="0 0 24 24" fill="none" xmlns="http://www.w3.org/2000/svg">
<g clip-path="url(#clip0_240_886)">
<path d="M18.0077 0H5.99234C2.68286 0 0 2.68286 0 5.99234V18.0077C0 21.3171 2.68286 24 5.99234 24H18.0077C21.3171 24 24 21.3171 24 18.0077V5.99234C24 2.68286 21.3171 0 18.0077 0Z" fill="url(#paint0_linear_240_886)"/>
<path d="M18.0077 0H5.99234C2.68286 0 0 2.68286 0 5.99234V18.0077C0 21.3171 2.68286 24 5.99234 24H18.0077C21.3171 24 24 21.3171 24 18.0077V5.99234C24 2.68286 21.3171 0 18.0077 0Z" fill="url(#paint1_radial_240_886)"/>
<path fill-rule="evenodd" clip-rule="evenodd" d="M12.163 19.5167C10.6727 19.5167 9.9802 19.2992 8.77642 18.429C8.01498 19.408 5.60378 20.173 5.49862 18.8641C5.49862 17.8815 5.28106 17.0512 5.0345 16.1447C4.74081 15.0279 4.40723 13.7842 4.40723 11.9822C4.40723 7.67825 7.93884 4.44034 12.1231 4.44034C16.311 4.44034 19.5924 7.83779 19.5924 12.022C19.6065 16.1416 16.2825 19.4948 12.163 19.5167ZM12.2246 8.16048C10.1869 8.05534 8.59874 9.46581 8.24703 11.6776C7.95696 13.5087 8.47184 15.7386 8.91056 15.8546C9.12087 15.9054 9.65025 15.4775 9.9802 15.1476C10.5258 15.5245 11.1611 15.7508 11.8222 15.8038C13.9336 15.9054 15.7377 14.298 15.8795 12.1889C15.962 10.0753 14.3364 8.28508 12.2246 8.16412V8.16048Z" fill="white"/>
</g>
<defs>
<linearGradient id="paint0_linear_240_886" x1="2.82833" y1="18.2529" x2="24" y2="12" gradientUnits="userSpaceOnUse">
<stop stop-color="#44CCFF"/>
<stop offset="0.662" stop-color="#5533EE"/>
<stop offset="1" stop-color="#9933DD"/>
</linearGradient>
<radialGradient id="paint1_radial_240_886" cx="0" cy="0" r="1" gradientUnits="userSpaceOnUse" gradientTransform="translate(-0.570979 -10.5404) rotate(51.356) scale(29.1244 12)">
<stop stop-color="#0000FF"/>
<stop offset="1" stop-opacity="0"/>
</radialGradient>
<clipPath id="clip0_240_886">
<rect width="24" height="24" fill="white"/>
</clipPath>
</defs>
</svg>
