<svg width="163" height="72" viewBox="0 0 163 72" fill="none" xmlns="http://www.w3.org/2000/svg">
<path d="M75.3823 24.4832C74.6577 25.6266 73.8166 26.6921 72.859 27.6796C71.9273 28.6671 70.8404 29.5506 69.5981 30.3303C69.5464 31.0059 69.4429 31.6816 69.2876 32.3572C69.1323 33.0329 68.9382 33.7476 68.7053 34.5012C68.3171 35.7226 67.7477 36.9699 66.9972 38.2433C66.2726 39.4907 65.4186 40.6731 64.4351 41.7905C63.4517 42.908 62.3647 43.9345 61.1743 44.87C59.9838 45.7795 58.7286 46.5202 57.4087 47.0919C56.1147 47.6636 54.769 48.0144 53.3715 48.1444C51.9998 48.2743 50.6282 48.1184 49.2566 47.6766C48.1437 47.3128 47.1862 46.6631 46.3839 45.7276C45.5816 44.7661 44.9864 43.6226 44.5982 42.2973C44.21 40.972 44.0547 39.5037 44.1324 37.8925C44.21 36.2553 44.5853 34.5921 45.2581 32.903C44.43 32.3313 43.7442 31.6426 43.2007 30.837C42.6831 30.0314 42.3725 29.0829 42.269 27.9914C42.0879 26.1204 42.3467 24.4442 43.0454 22.9629C43.7442 21.4557 44.7405 20.1823 46.0345 19.1428C47.3285 18.0774 48.8166 17.2458 50.4988 16.6481C52.2069 16.0504 53.9538 15.7126 55.7395 15.6346C57.5252 15.5566 59.2721 15.7645 60.9802 16.2583C62.7141 16.726 64.241 17.5057 65.5609 18.5971C66.9066 19.6626 67.9677 21.0529 68.7441 22.768C69.5205 24.4832 69.8569 26.5491 69.7534 28.9659C70.8145 28.2643 71.7979 27.5107 72.7037 26.7051C73.6095 25.8995 74.3083 25.0159 74.8 24.0544C74.8776 23.9245 74.9682 23.8335 75.0717 23.7815C75.2011 23.7036 75.3046 23.6776 75.3823 23.7036C75.4858 23.7296 75.5505 23.8075 75.5764 23.9374C75.6023 24.0674 75.5376 24.2493 75.3823 24.4832ZM67.3854 30.2133C67.6183 27.6406 67.4372 25.4577 66.8419 23.6646C66.2467 21.8455 65.3927 20.3902 64.2798 19.2988C63.167 18.1813 61.8601 17.3887 60.359 16.9209C58.8839 16.4532 57.3699 16.2713 55.8171 16.3752C54.2643 16.4532 52.7374 16.804 51.2364 17.4277C49.7612 18.0254 48.4672 18.844 47.3544 19.8835C46.2675 20.923 45.4393 22.1573 44.8699 23.5866C44.3006 25.0159 44.1453 26.6011 44.4041 28.3423C44.5594 29.5636 45.077 30.5511 45.9569 31.3048C46.3192 30.5511 46.798 29.6936 47.3932 28.7321C47.9885 27.7705 48.6743 26.822 49.4507 25.8865C50.2271 24.925 51.0682 24.0284 51.974 23.1968C52.9056 22.3392 53.8632 21.6636 54.8466 21.1698C55.8301 20.6501 56.8264 20.3512 57.8358 20.2733C58.8451 20.1693 59.8414 20.3902 60.8249 20.9359C61.1096 21.0919 61.1872 21.2478 61.0578 21.4037C60.9543 21.5336 60.7731 21.5596 60.5143 21.4817C59.712 21.2218 58.8709 21.2348 57.991 21.5207C57.137 21.8065 56.283 22.2613 55.4289 22.885C54.6008 23.5087 53.7856 24.2493 52.9833 25.1069C52.2069 25.9644 51.4823 26.848 50.8094 27.7575C50.1624 28.6671 49.5801 29.5636 49.0625 30.4472C48.5708 31.3048 48.1955 32.0324 47.9367 32.6301C49.0754 33.2018 50.4341 33.5656 52.0128 33.7216C53.5915 33.8515 55.2478 33.7995 56.9817 33.5656C58.7415 33.3318 60.5143 32.929 62.3 32.3572C64.1116 31.7855 65.8067 31.0709 67.3854 30.2133ZM67.1525 31.5776C65.548 32.4352 63.8528 33.1498 62.0671 33.7216C60.2814 34.2673 58.5086 34.6441 56.7488 34.852C55.0148 35.0599 53.3327 35.0989 51.7022 34.9689C50.0718 34.839 48.6225 34.5142 47.3544 33.9944C46.8886 35.2158 46.5521 36.4632 46.3451 37.7366C46.1381 39.0099 46.0992 40.2183 46.2286 41.3618C46.3839 42.4792 46.7074 43.4927 47.1991 44.4022C47.7167 45.2858 48.4414 45.9615 49.373 46.4292C50.5117 47.0009 51.6505 47.2738 52.7892 47.2478C53.9538 47.2218 55.0925 46.962 56.2053 46.4682C57.344 46.0004 58.431 45.3508 59.4662 44.5192C60.5014 43.6616 61.4589 42.7001 62.3388 41.6346C63.2188 40.5432 64.0081 39.3737 64.7068 38.1264C65.4315 36.879 66.0138 35.6186 66.4537 34.3453C66.609 33.9035 66.7514 33.4487 66.8808 32.9809C67.0102 32.4872 67.1007 32.0194 67.1525 31.5776Z" fill="black"/>
<path d="M65.8942 54.3423C65.506 55.1739 65.1437 55.7326 64.8072 56.0184C64.4449 56.3043 63.9403 56.4212 63.2933 56.3693C63.0345 56.3433 62.7757 56.2913 62.5169 56.2133C62.2322 56.1354 61.9475 56.1224 61.6628 56.1744C61.8181 56.0184 62.1157 55.5637 62.5557 54.81C62.9956 54.0824 63.5003 53.1729 64.0697 52.0814C64.639 51.0159 65.2472 49.8465 65.8942 48.5732C66.5412 47.2998 67.1364 46.0524 67.6799 44.831C68.2493 43.6096 68.728 42.4922 69.1162 41.4787C69.5303 40.4392 69.802 39.6206 69.9314 39.0229C69.7244 39.3608 69.4915 39.5816 69.2327 39.6856C68.9739 39.7636 68.9092 39.6596 69.0386 39.3737C69.1421 39.1659 69.2715 38.88 69.4268 38.5162C69.5821 38.1524 69.7115 37.8535 69.815 37.6196C69.9961 37.2038 70.1514 36.7231 70.2808 36.1773C70.4361 35.6316 70.5267 35.1119 70.5526 34.6181C70.6043 34.1244 70.5914 33.7086 70.5137 33.3707C70.4361 33.0069 70.2808 32.799 70.0479 32.7471C70.3326 32.6951 70.6043 32.6431 70.8631 32.5911C71.0702 32.5392 71.2772 32.5132 71.4842 32.5132C71.7172 32.4872 71.8724 32.4612 71.9501 32.4352C72.2348 32.4092 72.4677 32.3962 72.6488 32.3962C72.83 32.3702 72.9723 32.3962 73.0759 32.4742C73.1794 32.5521 73.2441 32.7211 73.27 32.9809C73.3217 33.2148 73.3476 33.5656 73.3476 34.0334C73.3476 34.4232 73.2829 34.891 73.1535 35.4367C73.05 35.9565 72.9206 36.5022 72.7653 37.0739C72.61 37.6456 72.4418 38.2043 72.2606 38.7501C72.0795 39.2958 71.9113 39.7765 71.756 40.1923C72.1442 39.6986 72.6359 39.1269 73.2311 38.4772C73.8264 37.8015 74.4216 37.2038 75.0168 36.6841C75.4827 36.2683 76.052 35.8265 76.7249 35.3587C77.4237 34.865 78.1224 34.4362 78.8212 34.0724C79.5199 33.6826 80.1669 33.3837 80.7622 33.1758C81.3833 32.9679 81.8621 32.916 82.1985 33.0199C81.4221 34.4232 80.7104 35.7615 80.0634 37.0349C79.7787 37.5806 79.4941 38.1394 79.2094 38.7111C78.9506 39.2828 78.7047 39.8415 78.4718 40.3872C78.2389 40.907 78.0318 41.4007 77.8507 41.8685C77.6954 42.3363 77.5919 42.7391 77.5401 43.0769C77.3848 43.8825 77.3848 44.4152 77.5401 44.6751C77.6954 44.909 77.9024 45.0259 78.1612 45.0259C78.653 45.0259 79.1706 44.7531 79.714 44.2073C80.2575 43.6616 80.7751 43.0249 81.2668 42.2973C81.7585 41.5437 82.1985 40.79 82.5867 40.0364C82.9749 39.2828 83.2725 38.6981 83.4796 38.2823C83.6348 37.9445 83.803 37.8275 83.9842 37.9315C84.1912 38.0094 84.2042 38.2433 84.023 38.6331C83.7383 39.2308 83.376 39.9455 82.9361 40.777C82.522 41.6086 82.0432 42.4142 81.4997 43.1938C80.9563 43.9475 80.361 44.5971 79.714 45.1429C79.067 45.6886 78.3683 45.9615 77.6178 45.9615C77.2813 45.9615 76.932 45.8965 76.5696 45.7666C76.2073 45.6366 75.8968 45.4027 75.638 45.0649C75.405 44.7011 75.2627 44.2333 75.2109 43.6616C75.1592 43.0639 75.2756 42.3103 75.5603 41.4007C75.7156 40.881 75.9744 40.2963 76.3367 39.6466C76.699 38.9709 77.1519 38.1913 77.6954 37.3078C77.9283 36.918 78.0577 36.5801 78.0836 36.2943C78.1095 36.0084 78.006 35.8395 77.773 35.7875C77.566 35.7356 77.2296 35.8395 76.7637 36.0994C76.2979 36.3592 75.6897 36.84 74.9392 37.5417C74.6028 37.8535 74.2146 38.2173 73.7746 38.6331C73.3605 39.0489 72.9076 39.5686 72.4159 40.1923C71.9501 40.79 71.4713 41.5047 70.9796 42.3363C70.4879 43.1679 70.0091 44.1424 69.5433 45.2598L65.8942 54.3423Z" fill="black"/>
<path d="M96.6549 38.6331C96.3444 39.3088 95.9821 40.0624 95.568 40.894C95.1539 41.6996 94.6881 42.4662 94.1705 43.1938C93.6529 43.9215 93.0835 44.5322 92.4624 45.0259C91.8413 45.5197 91.1813 45.7666 90.4826 45.7666C90.0426 45.7666 89.6544 45.6626 89.318 45.4547C88.9816 45.2208 88.7227 44.896 88.5416 44.4802C88.3863 44.0384 88.3087 43.5057 88.3087 42.882C88.3087 42.2583 88.4381 41.5567 88.6969 40.777C88.3604 41.3747 87.9852 41.9725 87.5711 42.5702C87.1829 43.1419 86.7559 43.6746 86.29 44.1684C85.8501 44.6361 85.3842 45.0259 84.8925 45.3378C84.4008 45.6236 83.922 45.7666 83.4562 45.7666C83.2492 45.7666 83.0163 45.7536 82.7574 45.7276C82.5245 45.6756 82.2916 45.5846 82.0587 45.4547C81.8258 45.3248 81.6058 45.1429 81.3988 44.909C81.2176 44.6751 81.0882 44.3763 81.0106 44.0124C80.9329 43.5966 80.92 43.1938 80.9717 42.804C81.0235 42.4142 81.1141 42.0374 81.2435 41.6736C81.3988 41.2838 81.567 40.92 81.7481 40.5821C81.9552 40.2183 82.1493 39.8545 82.3304 39.4907C82.201 39.4907 82.0716 39.4517 81.9422 39.3737C81.8387 39.2958 81.8516 39.1269 81.981 38.867C82.1105 38.6591 82.2269 38.4382 82.3304 38.2043C82.4339 37.9704 82.5504 37.7366 82.6798 37.5027C83.068 36.7491 83.4562 35.9954 83.8444 35.2418C84.2326 34.4882 84.569 33.8125 84.8537 33.2148C85.009 32.903 85.2031 32.6951 85.436 32.5911C85.6948 32.4612 86.0054 32.3962 86.3677 32.3962H88.7357C88.5028 32.5522 88.2957 32.7211 88.1146 32.903C87.9334 33.0589 87.7393 33.2538 87.5323 33.4877C87.3511 33.7216 87.157 34.0074 86.95 34.3453C86.7429 34.6831 86.51 35.1249 86.2512 35.6706C85.8889 36.3463 85.5654 36.9959 85.2807 37.6196C84.9961 38.1654 84.7243 38.7241 84.4655 39.2958C84.2067 39.8675 83.9867 40.3353 83.8056 40.6991C83.3397 41.7126 83.0809 42.5572 83.0292 43.2328C82.9774 43.9085 83.068 44.3892 83.3009 44.6751C83.5597 44.935 83.935 44.974 84.4267 44.792C84.9184 44.5841 85.4748 44.1164 86.0959 43.3887C86.6394 42.7651 87.17 42.0244 87.6876 41.1669C88.231 40.3093 88.7486 39.4257 89.2403 38.5162C89.7321 37.5806 90.1979 36.6581 90.6379 35.7486C91.1037 34.839 91.5178 33.9944 91.8801 33.2148C92.0354 32.903 92.2295 32.6951 92.4624 32.5911C92.7212 32.4612 93.0318 32.3962 93.3941 32.3962H95.4903C95.2057 32.6301 94.9598 32.851 94.7528 33.0589C94.5457 33.2408 94.3387 33.4747 94.1316 33.7605C93.9505 34.0204 93.7564 34.3582 93.5493 34.774C93.3423 35.1638 93.0965 35.6576 92.8118 36.2553C92.5271 36.801 92.2424 37.3727 91.9577 37.9704C91.6989 38.5422 91.4401 39.1139 91.1813 39.6856C90.9484 40.2313 90.7414 40.7511 90.5602 41.2448C90.3791 41.7126 90.2626 42.1154 90.2108 42.4532C90.0297 43.2848 90.0297 43.8825 90.2108 44.2463C90.4179 44.5841 90.6637 44.7661 90.9484 44.792C91.4143 44.792 91.8801 44.5841 92.3459 44.1684C92.8376 43.7526 93.3035 43.2328 93.7434 42.6091C94.1834 41.9595 94.5975 41.2578 94.9857 40.5042C95.3998 39.7246 95.775 38.9839 96.1114 38.2823C96.2667 37.9445 96.435 37.8275 96.6161 37.9315C96.8232 38.0094 96.8361 38.2433 96.6549 38.6331Z" fill="black"/>
<path d="M108.589 38.4772C108.434 38.841 108.175 39.4127 107.813 40.1923C107.476 40.9719 107.049 41.7516 106.532 42.5312C106.014 43.3108 105.406 43.9994 104.707 44.5971C104.034 45.1948 103.297 45.4937 102.494 45.4937C101.899 45.4937 101.394 45.4027 100.98 45.2208C100.592 45.0129 100.269 44.7661 100.01 44.4802C99.4663 44.896 98.9099 45.2338 98.3406 45.4937C97.7712 45.7276 97.2018 45.8315 96.6325 45.8055C95.882 45.7795 95.2867 45.5587 94.8468 45.1429C94.4327 44.7271 94.148 44.1943 93.9927 43.5447C93.8633 42.869 93.8633 42.1154 93.9927 41.2838C94.1221 40.4262 94.368 39.5686 94.7303 38.7111C95.1185 37.8275 95.5973 36.9829 96.1666 36.1773C96.736 35.3717 97.3442 34.6701 97.9912 34.0724C98.6641 33.4747 99.3499 33.0069 100.049 32.6691C100.747 32.3053 101.433 32.1364 102.106 32.1623C102.831 32.1623 103.413 32.3702 103.853 32.786C104.293 33.2018 104.578 33.7476 104.707 34.4232C104.862 35.0989 104.875 35.8655 104.746 36.7231C104.616 37.5547 104.371 38.3992 104.008 39.2568C103.724 39.9325 103.297 40.6991 102.727 41.5567C102.158 42.3882 101.498 43.1549 100.747 43.8565C101.084 44.5062 101.692 44.831 102.572 44.831C103.193 44.831 103.775 44.5712 104.319 44.0514C104.888 43.5317 105.406 42.908 105.872 42.1803C106.337 41.4527 106.752 40.7121 107.114 39.9585C107.476 39.2048 107.774 38.5941 108.007 38.1264C108.11 37.9185 108.265 37.8535 108.473 37.9315C108.68 38.0094 108.718 38.1913 108.589 38.4772ZM102.921 33.4487C102.507 33.3448 102.054 33.4097 101.563 33.6436C101.071 33.8515 100.579 34.2023 100.087 34.6961C99.5957 35.1638 99.1169 35.7356 98.6511 36.4112C98.1853 37.0609 97.7712 37.7755 97.4089 38.5552C97.0207 39.3608 96.7101 40.1274 96.4772 40.855C96.2702 41.5567 96.1408 42.1933 96.089 42.7651C96.0372 43.3368 96.0761 43.8175 96.2055 44.2073C96.3349 44.5712 96.5807 44.805 96.943 44.909C97.3054 45.0129 97.7194 44.974 98.1853 44.792C98.6511 44.6101 99.117 44.3243 99.5828 43.9345C99.3757 43.6226 99.2205 43.2978 99.1169 42.96C99.0134 42.6221 98.9617 42.3103 98.9617 42.0244C98.9875 41.5826 99.0911 41.1928 99.2722 40.855C99.4793 40.5172 99.8286 40.3483 100.32 40.3483C100.657 40.3483 100.929 40.4652 101.136 40.6991C101.368 40.933 101.485 41.2058 101.485 41.5177C101.485 41.5956 101.472 41.6736 101.446 41.7516C101.446 41.8035 101.433 41.8685 101.407 41.9465C101.847 41.2968 102.248 40.5951 102.611 39.8415C102.999 39.0359 103.297 38.2693 103.504 37.5417C103.711 36.814 103.827 36.1643 103.853 35.5926C103.879 35.0209 103.814 34.5532 103.659 34.1893C103.504 33.7995 103.258 33.5527 102.921 33.4487Z" fill="black"/>
<path d="M108.122 40.1923C107.966 40.5302 107.837 40.803 107.733 41.0109C107.63 41.2188 107.513 41.4787 107.384 41.7905C107.255 42.1024 107.073 42.5182 106.841 43.0379C106.608 43.5577 106.284 44.2983 105.87 45.2598C105.715 45.5457 105.534 45.7146 105.327 45.7666C105.12 45.8185 104.809 45.8445 104.395 45.8445C104.11 45.8705 103.877 45.8835 103.696 45.8835C103.489 45.8835 103.282 45.9485 103.075 46.0784C104.007 44.2073 104.887 42.3623 105.715 40.5432C106.569 38.7241 107.475 36.931 108.432 35.1638C108.924 34.2283 109.351 33.5786 109.713 33.2148C110.076 32.851 110.567 32.6821 111.188 32.7081C111.447 32.7341 111.706 32.786 111.965 32.864C112.249 32.916 112.534 32.916 112.819 32.864C112.534 33.0199 112.185 33.3577 111.771 33.8775C111.382 34.3972 110.968 35.0079 110.528 35.7096C110.114 36.4112 109.687 37.1648 109.247 37.9704C108.833 38.7501 108.458 39.4907 108.122 40.1923ZM114.993 40.1923C114.812 40.5562 114.617 41.0109 114.41 41.5567C114.229 42.0764 114.1 42.5961 114.022 43.1159C113.945 43.6096 113.958 44.0384 114.061 44.4022C114.19 44.7661 114.488 44.948 114.954 44.948C115.446 44.948 115.95 44.6751 116.468 44.1294C117.011 43.5836 117.516 42.947 117.982 42.2193C118.448 41.4917 118.862 40.7641 119.224 40.0364C119.612 39.2828 119.91 38.6981 120.117 38.2823C120.272 37.9445 120.44 37.8275 120.622 37.9315C120.829 38.0094 120.842 38.2433 120.66 38.6331C120.376 39.2308 120.013 39.9455 119.573 40.777C119.159 41.6086 118.681 42.4142 118.137 43.1938C117.594 43.9475 116.998 44.5971 116.351 45.1429C115.704 45.6886 115.006 45.9615 114.255 45.9615C113.945 45.9615 113.634 45.8835 113.323 45.7276C113.039 45.5457 112.767 45.2728 112.508 44.909C112.301 44.5712 112.133 44.0644 112.004 43.3887C111.874 42.7131 111.926 42.0764 112.159 41.4787C112.469 40.829 112.741 40.2573 112.974 39.7636C113.207 39.2438 113.44 38.7501 113.673 38.2823C113.906 37.8145 114.152 37.3338 114.41 36.84C114.669 36.3463 114.967 35.7875 115.303 35.1638C115.795 34.2283 116.222 33.5786 116.584 33.2148C116.947 32.851 117.438 32.6821 118.059 32.7081C118.318 32.7341 118.577 32.786 118.836 32.864C119.121 32.916 119.405 32.916 119.69 32.864C119.405 33.0199 119.056 33.3577 118.642 33.8775C118.254 34.3972 117.84 35.0079 117.4 35.7096C116.985 36.4112 116.558 37.1648 116.118 37.9704C115.704 38.7501 115.329 39.4907 114.993 40.1923ZM114.333 38.0484C114.178 38.4902 113.906 38.919 113.518 39.3348C113.129 39.7246 112.676 39.8935 112.159 39.8415C111.693 39.8155 111.227 39.6856 110.761 39.4517C110.321 39.1918 109.881 39.0489 109.441 39.0229C109.183 38.9969 108.95 39.0619 108.743 39.2178C108.536 39.3478 108.38 39.5167 108.277 39.7246C108.251 39.7765 108.147 39.8025 107.966 39.8025C107.785 39.8025 107.72 39.7636 107.772 39.6856C107.979 39.2958 108.264 38.906 108.626 38.5162C109.014 38.1264 109.467 37.9575 109.985 38.0094C110.477 38.0354 110.93 38.1653 111.344 38.3992C111.784 38.6071 112.224 38.7371 112.664 38.789C112.974 38.841 113.22 38.789 113.401 38.6331C113.582 38.4772 113.738 38.2823 113.867 38.0484C113.919 37.9964 114.022 37.9704 114.177 37.9704C114.333 37.9704 114.385 37.9964 114.333 38.0484Z" fill="black"/>
<path d="M81.5005 4.02629C84.6609 -0.361892 91.9747 -1.68522 97.7901 2.70467C100.972 5.10624 104.362 6.02633 108.98 6.43934C111.297 6.64654 113.903 6.72481 116.94 6.80347C119.97 6.88197 123.417 6.96114 127.385 7.17137C133.434 7.49195 137.447 9.20717 140.011 11.4183C142.276 13.3718 143.371 15.6807 143.745 17.6518H144.05C144.062 17.6521 144.065 17.6527 144.068 17.6528C146.611 17.6697 148.13 18.2181 149.146 18.5188C152.071 19.384 154.023 20.4793 155.986 21.9497C157.972 23.4368 159.621 25.3339 160.821 27.5154C162.021 29.6968 162.745 32.1123 162.944 34.5989C163.143 37.0855 162.811 39.5864 161.973 41.9333C161.134 44.2801 159.809 46.4193 158.084 48.2075C156.376 49.9778 154.029 51.7091 151.706 52.6289C149.492 53.5057 146.445 54.4843 143.911 54.3552L143.746 54.3467C143.372 56.3195 142.276 58.6311 140.006 60.5859C137.442 62.7948 133.431 64.5077 127.385 64.8281C123.417 65.0383 119.97 65.1174 116.94 65.196C113.903 65.2747 111.297 65.3528 108.98 65.5601C104.362 65.9734 100.972 66.8942 97.7901 69.2958C91.974 73.6861 84.6601 72.3608 81.5005 67.9713C78.3408 72.361 71.0261 73.6863 65.2099 69.2958C62.0285 66.8942 58.6385 65.9734 54.0211 65.5601C51.7044 65.3528 49.0975 65.2748 46.0612 65.196C43.0309 65.1174 39.5843 65.0383 35.616 64.8281C29.57 64.5078 25.5581 62.7949 22.9936 60.5859C20.7242 58.6311 19.6274 56.3196 19.2535 54.3467L19.0893 54.3552C16.5548 54.4843 13.5082 53.5057 11.2937 52.6289C8.97069 51.7091 6.6235 49.9778 4.91601 48.2075C3.19142 46.4193 1.86577 44.2801 1.02743 41.9333C0.189104 39.5864 -0.142722 37.0855 0.0559702 34.5989C0.254747 32.1123 0.978726 29.6968 2.17878 27.5154C3.37874 25.3342 5.02745 23.4368 7.01299 21.9497C8.97655 20.4792 10.9287 19.384 13.8538 18.5188C14.8699 18.2181 16.3897 17.6699 18.9306 17.6528L18.95 17.6518H19.2554C19.6292 15.6807 20.7237 13.3718 22.989 11.4183C25.5531 9.20717 29.5663 7.49189 35.616 7.17137C39.5843 6.96115 43.0309 6.88199 46.0612 6.80347C49.0975 6.7248 51.7044 6.64657 54.0211 6.43934C58.6385 6.02629 62.0285 5.1061 65.2099 2.70467C71.0254 -1.68527 78.34 -0.362083 81.5005 4.02629ZM96.9247 3.90271C91.2455 -0.384313 84.3392 1.52251 82.1444 5.76863L81.5005 7.01383L80.8565 5.76863C78.6619 1.52239 71.7546 -0.384426 66.0753 3.90271C62.5925 6.53165 58.9014 7.49797 54.1475 7.92321C51.7786 8.13509 49.127 8.21357 46.0982 8.29205C43.0631 8.37069 39.6369 8.44907 35.6917 8.65807C29.8746 8.96624 26.1917 10.6049 23.9281 12.5569C21.6644 14.509 20.7705 16.8158 20.5912 18.5659L20.5073 19.3866L19.7176 19.2168C19.5011 19.1703 19.2755 19.1447 19.0432 19.1414L18.9897 19.1404C18.9897 19.1404 18.986 19.1413 18.9832 19.1414H18.9445C16.6296 19.1564 15.2911 19.6432 14.2579 19.9489C11.5143 20.7604 9.7144 21.7723 7.87282 23.1515C6.05383 24.5139 4.54558 26.2508 3.44822 28.2455C2.35081 30.2404 1.68973 32.4478 1.50808 34.7196C1.32652 36.9914 1.62842 39.2767 2.39466 41.422C3.16104 43.5675 4.37402 45.5251 5.95297 47.1622C7.54925 48.8173 9.72876 50.4124 11.8195 51.2403C13.832 52.0371 16.3447 52.8299 18.4444 52.8732L19.0422 52.8657C19.275 52.8624 19.5009 52.8368 19.7176 52.7902L20.5063 52.6204L20.5912 53.4401C20.772 55.1905 21.6676 57.4959 23.9318 59.4464C26.1959 61.3966 29.878 63.0334 35.6917 63.3414C39.637 63.5504 43.0631 63.6287 46.0982 63.7074C49.1271 63.786 51.7786 63.8652 54.1475 64.0772C58.9014 64.5027 62.5925 65.4687 66.0753 68.0977C71.7551 72.3852 78.6624 70.477 80.8565 66.2299L81.5005 64.9838L82.1444 66.2299C84.3386 70.4768 91.2451 72.3849 96.9247 68.0977C100.407 65.4687 104.098 64.5027 108.853 64.0772C111.222 63.8652 113.874 63.786 116.903 63.7074C119.938 63.6287 123.364 63.5504 127.309 63.3414C133.123 63.0334 136.804 61.3966 139.068 59.4464C141.332 57.4959 142.228 55.1906 142.409 53.4401L142.494 52.6204L143.282 52.7902C143.499 52.8367 143.724 52.8623 143.957 52.8657L144.545 52.8741C146.647 52.8332 149.165 52.0384 151.18 51.2403C153.271 50.4124 155.451 48.8173 157.047 47.1622C158.626 45.5251 159.839 43.5675 160.605 41.422C161.372 39.2767 161.673 36.9914 161.492 34.7196C161.31 32.4478 160.649 30.2404 159.552 28.2455C158.454 26.2508 156.946 24.5141 155.126 23.1515C153.285 21.7723 151.486 20.7604 148.742 19.9489C147.709 19.6432 146.37 19.1563 144.055 19.1414H144.016C144.012 19.1413 144.008 19.1404 144.008 19.1404L143.956 19.1414C143.724 19.1447 143.498 19.1704 143.282 19.2168L142.493 19.3866L142.409 18.5659C142.23 16.8157 141.336 14.509 139.072 12.5569C136.809 10.605 133.126 8.9663 127.309 8.65807C123.364 8.44906 119.938 8.37068 116.903 8.29205C113.874 8.21358 111.222 8.1351 108.853 7.92321C104.098 7.498 100.407 6.53173 96.9247 3.90271ZM88.2896 8.07131C88.2439 7.46399 88.0416 6.90085 87.7222 6.42142L87.2388 5.69693L88.0174 5.32715C89.4499 4.647 91.7166 4.39843 94.3951 6.01578C96.477 7.27311 98.4968 8.49101 101.325 9.40613C104.154 10.3213 107.826 10.9438 113.185 10.9438C118.374 10.9438 123.41 11.1355 127.538 11.8041C129.602 12.1384 131.463 12.5956 133.013 13.22C134.558 13.8421 135.846 14.6508 136.706 15.7208L137.139 16.2604L136.64 16.7377C135.98 17.368 135.573 18.2541 135.573 19.2348L135.577 19.4112C135.669 21.2234 137.16 22.6825 139.009 22.6827C139.264 22.6827 139.513 22.6539 139.754 22.6006L140.49 22.4374L140.625 23.1958C140.909 24.802 142.308 26.036 144.007 26.0362C145.344 26.0362 146.498 25.2697 147.067 24.1561L147.315 23.6703L147.843 23.7675C147.973 23.7917 148.104 23.8182 148.234 23.8467C149.95 24.2225 151.567 24.9633 152.978 26.0192C154.388 27.0753 155.56 28.4229 156.412 29.9728C157.265 31.5226 157.779 33.2395 157.921 35.0064C158.062 36.7733 157.825 38.5502 157.23 40.2174C156.634 41.8846 155.692 43.4038 154.468 44.6737C153.243 45.9438 151.763 46.9357 150.128 47.583C149.386 47.8767 148.621 48.0955 147.843 48.2395L147.315 48.3367L147.067 47.8509C146.498 46.7379 145.344 45.9718 144.007 45.9718C142.31 45.9719 140.911 47.2026 140.625 48.8055L140.49 49.5621L139.755 49.3989C139.515 49.3459 139.266 49.3178 139.009 49.3178C137.1 49.318 135.573 50.8726 135.573 52.7657L135.577 52.9487C135.624 53.8553 136.022 54.6697 136.64 55.2608L137.139 55.7381L136.706 56.2777C135.847 57.3479 134.559 58.1573 133.014 58.7794C131.464 59.4041 129.602 59.8609 127.538 60.1954C123.41 60.8641 118.374 61.0557 113.185 61.0557C107.826 61.0557 104.154 61.6782 101.325 62.5933C98.4968 63.5085 96.477 64.7264 94.3951 65.9837C91.7164 67.6012 89.4506 67.3513 88.0183 66.6714L87.2397 66.3016L87.7222 65.5771C88.0868 65.0293 88.2997 64.373 88.2997 63.6659C88.2996 61.7729 86.7712 60.218 84.8623 60.218C83.7189 60.2181 82.7092 60.778 82.0844 61.6368L81.5005 62.4405L80.9165 61.6368C80.3309 60.8317 79.4064 60.2893 78.3508 60.2246L78.1377 60.218C76.2288 60.218 74.7004 61.7729 74.7003 63.6659C74.7003 64.3732 74.9127 65.0297 75.2769 65.5771L75.7594 66.3025L74.9807 66.6714C73.5485 67.3509 71.283 67.6009 68.6049 65.9837C66.5231 64.7264 64.5032 63.5085 61.6747 62.5933C58.846 61.6782 55.1739 61.0557 49.8151 61.0557C44.6253 61.0557 39.5888 60.8641 35.461 60.1954C33.3969 59.861 31.5359 59.404 29.9856 58.7794C28.4415 58.1573 27.1532 57.348 26.2945 56.2777L25.8609 55.7381L26.36 55.2608C26.9789 54.6693 27.3766 53.8546 27.4237 52.9477L27.4283 52.7657C27.4283 50.8726 25.9 49.3178 23.9909 49.3178C23.7355 49.3178 23.4862 49.3465 23.2454 49.3998L22.5101 49.563L22.3755 48.8065C22.1068 47.3032 20.8608 46.127 19.3079 45.9859L18.9934 45.9718C17.6553 45.9718 16.5005 46.7378 15.9323 47.8509L15.6841 48.3367L15.1564 48.2395C14.3786 48.0955 13.6129 47.8766 12.8712 47.583C11.2365 46.9356 9.75725 45.9436 8.53245 44.6737C7.30777 43.4039 6.36511 41.885 5.76938 40.2174C5.17376 38.5499 4.93823 36.773 5.07931 35.0064C5.22052 33.2395 5.7351 31.5226 6.58769 29.9728C7.4403 28.423 8.61229 27.0753 10.0224 26.0192C11.4323 24.9634 13.0494 24.2226 14.7653 23.8467C14.8953 23.8183 15.0259 23.7917 15.1564 23.7675L15.6841 23.6703L15.9323 24.1561C16.5004 25.2697 17.6552 26.0362 18.9934 26.0362L19.3079 26.0221C20.8625 25.8807 22.1088 24.7019 22.3755 23.1958L22.5101 22.4374L23.2463 22.6006C23.4872 22.6539 23.7362 22.6826 23.9909 22.6827C25.8401 22.6827 27.3321 21.2234 27.4237 19.4112L27.4283 19.2348C27.4283 18.2542 27.0201 17.3683 26.36 16.7377L25.8609 16.2604L26.2945 15.7208C27.1534 14.6508 28.4423 13.8421 29.9866 13.22C31.5369 12.5956 33.3979 12.1384 35.462 11.8041C39.5897 11.1355 44.6257 10.9438 49.8151 10.9438C55.174 10.9438 58.846 10.3213 61.6747 9.40613C64.5032 8.49101 66.523 7.27311 68.6049 6.01578C71.2829 4.39862 73.5492 4.64741 74.9817 5.32715L75.7603 5.69693L75.2769 6.42142C74.9122 6.96895 74.7003 7.62644 74.7003 8.3345L74.7049 8.51091C74.7964 10.3231 76.2884 11.7824 78.1377 11.7824L78.3508 11.7758C79.4064 11.711 80.3308 11.1682 80.9165 10.3627L81.5005 9.55895L82.0844 10.3627C82.7093 11.2219 83.7189 11.7823 84.8623 11.7824C86.7712 11.7824 88.2996 10.2275 88.2997 8.3345L88.2896 8.07131ZM89.7555 8.3345C89.7554 10.9865 87.6893 13.1337 85.1132 13.2653L84.8623 13.271C83.5604 13.2709 82.3765 12.7566 81.4995 11.9182C80.6224 12.7563 79.4393 13.271 78.1377 13.271C75.4462 13.271 73.2446 11.072 73.2445 8.3345C73.2445 7.65488 73.3827 7.00742 73.6292 6.41764C72.5978 6.16349 71.1278 6.22189 69.3448 7.29872C67.2618 8.55668 65.1162 9.8545 62.1138 10.8259C59.1112 11.7973 55.2855 12.4324 49.8151 12.4324C44.6442 12.4324 39.701 12.625 35.6898 13.2748C33.6848 13.5995 31.9364 14.0352 30.5198 14.6058C29.3811 15.0645 28.4899 15.597 27.8508 16.201C28.497 17.0367 28.8841 18.0895 28.8841 19.2348C28.8839 21.8867 26.8179 24.034 24.2418 24.1656L23.9909 24.1712C23.87 24.1712 23.7504 24.165 23.632 24.1561C22.981 26.1194 21.1466 27.5248 18.9934 27.5248C17.3016 27.5248 15.8095 26.6567 14.9304 25.3353C13.4663 25.6764 12.0877 26.3183 10.8822 27.221C9.63844 28.1526 8.607 29.3399 7.85713 30.7029C7.10721 32.0661 6.65551 33.575 6.53142 35.1272C6.40744 36.6792 6.61316 38.2405 7.13662 39.7061C7.66016 41.1718 8.48993 42.5092 9.5694 43.6285C10.6487 44.7476 11.9536 45.6227 13.3971 46.1944C13.8964 46.3921 14.4092 46.5506 14.9304 46.6717C15.8097 45.3505 17.302 44.4832 18.9934 44.4832C21.1434 44.4832 22.9757 45.8844 23.6292 47.8433C23.7485 47.8344 23.8691 47.8292 23.9909 47.8292L24.2418 47.8348C26.8179 47.9664 28.8841 50.1135 28.8841 52.7657C28.8841 53.9105 28.4963 54.9617 27.8508 55.7966C28.4898 56.4009 29.3808 56.9347 30.5198 57.3937C31.9361 57.9643 33.6841 58.3999 35.6889 58.7247C39.7001 59.3746 44.6438 59.5671 49.8151 59.5671C55.2854 59.5671 59.1111 60.2022 62.1138 61.1736C65.1162 62.145 67.2619 63.4428 69.3448 64.7008C71.1277 65.7775 72.5969 65.8344 73.6283 65.5799C73.4054 65.0461 73.271 64.4652 73.2482 63.8555L73.2445 63.6659C73.2447 60.9284 75.4462 58.7294 78.1377 58.7294C79.4391 58.7295 80.6231 59.2432 81.5005 60.0812C82.3775 59.2435 83.561 58.7295 84.8623 58.7294L85.1132 58.7351C87.6893 58.8667 89.7553 61.014 89.7555 63.6659L89.7518 63.8555C89.7289 64.4656 89.593 65.0462 89.3699 65.5799C90.4012 65.8348 91.8711 65.7782 93.6552 64.7008C95.7381 63.4428 97.8838 62.145 100.886 61.1736C103.889 60.2022 107.714 59.5671 113.185 59.5671C118.356 59.5671 123.299 59.3745 127.31 58.7247C129.315 58.3999 131.064 57.9644 132.48 57.3937C133.619 56.9348 134.509 56.4007 135.148 55.7966C134.503 54.9616 134.117 53.9099 134.117 52.7657C134.117 50.0282 136.318 47.8294 139.009 47.8292L139.279 47.8358C139.309 47.8375 139.339 47.8411 139.37 47.8433C140.023 45.8844 141.857 44.4833 144.007 44.4832L144.358 44.4954C145.903 44.6062 147.25 45.4435 148.068 46.6717C148.589 46.5506 149.102 46.3922 149.602 46.1944C151.046 45.6227 152.351 44.7476 153.431 43.6285C154.51 42.5095 155.339 41.1719 155.862 39.7061C156.386 38.2403 156.593 36.6789 156.469 35.1272C156.344 33.575 155.893 32.0661 155.143 30.7029C154.393 29.3399 153.362 28.1526 152.118 27.221C150.912 26.318 149.532 25.6763 148.068 25.3353C147.25 26.5636 145.904 27.4014 144.359 27.5125L144.007 27.5248C141.854 27.5246 140.018 26.1195 139.367 24.1561C139.338 24.1583 139.309 24.162 139.279 24.1637L139.009 24.1712C136.318 24.171 134.117 21.972 134.117 19.2348C134.117 18.0902 134.503 17.0368 135.148 16.201C134.509 15.5972 133.619 15.0644 132.48 14.6058C131.064 14.0352 129.315 13.5995 127.31 13.2748C123.299 12.625 118.356 12.4324 113.185 12.4324C107.714 12.4324 103.889 11.7973 100.886 10.8259C97.8838 9.8545 95.7381 8.55668 93.6552 7.29872C91.871 6.22128 90.4004 6.16312 89.369 6.41764C89.6158 7.00732 89.7555 7.65434 89.7555 8.3345Z" fill="black"/>
</svg>
