<svg width="20" height="20" viewBox="0 0 20 20" fill="none" xmlns="http://www.w3.org/2000/svg">
<path d="M16.75 6.57349C16.75 6.13042 16.747 5.82295 16.7324 5.58423C15.8732 6.23858 14.802 7.0691 13.8994 7.77466C13.3781 8.18216 12.9132 8.54612 12.5791 8.80884C12.4122 8.94009 12.2782 9.04638 12.1855 9.11938C12.1394 9.15577 12.1034 9.18423 12.0791 9.20337C12.067 9.21294 12.057 9.21997 12.0508 9.22485C12.0477 9.22726 12.0455 9.2295 12.0439 9.23071L12.042 9.23169V9.23267C12.0377 9.23607 12.0327 9.23912 12.0283 9.24243C11.516 9.62887 11.0965 9.96269 10.6104 10.092C10.2103 10.1985 9.78967 10.1984 9.38965 10.092C8.90368 9.96276 8.48421 9.63024 7.97266 9.24438C7.96454 9.23826 7.95708 9.2313 7.94922 9.22485L3.2666 5.58813C3.25216 5.82687 3.25 6.13437 3.25 6.57642V13.0901C3.25 13.5819 3.25075 13.9074 3.27051 14.1565C3.28966 14.3975 3.32284 14.5028 3.35352 14.5647C3.4445 14.7482 3.58745 14.8934 3.75781 14.9827C3.81068 15.0104 3.90442 15.0435 4.13379 15.0627C4.37269 15.0828 4.68556 15.0833 5.16406 15.0833H14.8359C15.3142 15.0833 15.6266 15.0828 15.8652 15.0627C16.0941 15.0435 16.1882 15.0104 16.2412 14.9827C16.4123 14.893 16.5559 14.7474 16.6465 14.5647C16.6771 14.5029 16.7104 14.398 16.7295 14.1575C16.7492 13.9088 16.75 13.5839 16.75 13.093V6.57349ZM5.16699 4.58325C4.86087 4.58325 4.62238 4.58565 4.42773 4.59106L8.88281 8.05103C9.49624 8.51361 9.64244 8.60745 9.77539 8.64282C9.9226 8.68192 10.0774 8.68195 10.2246 8.64282C10.3573 8.60752 10.5035 8.51387 11.1123 8.05493H11.1133C11.1137 8.05461 11.1144 8.05361 11.1152 8.05298C11.1168 8.05173 11.1191 8.04945 11.1221 8.04712C11.1283 8.04221 11.1375 8.03505 11.1494 8.02563C11.1738 8.00638 11.2104 7.97823 11.2568 7.94165C11.3498 7.86836 11.4848 7.76184 11.6523 7.63013C11.9873 7.36672 12.4528 7.00069 12.9756 6.59204C13.7892 5.95605 14.7453 5.21552 15.5615 4.59106C15.3691 4.58594 15.1342 4.58325 14.834 4.58325H5.16699ZM18.25 13.093C18.25 13.5601 18.2502 13.9546 18.2246 14.2766C18.1984 14.6067 18.1411 14.9252 17.9902 15.2297C17.7612 15.692 17.3935 16.0718 16.9375 16.3108C16.6343 16.4697 16.3168 16.5295 15.9912 16.5569C15.6751 16.5835 15.2889 16.5833 14.8359 16.5833H5.16406C4.71118 16.5833 4.325 16.5834 4.00879 16.5569C3.68315 16.5295 3.36481 16.4697 3.06152 16.3108C2.60484 16.0714 2.23834 15.6912 2.00977 15.2297C1.85886 14.925 1.80165 14.6061 1.77539 14.2756C1.74979 13.9533 1.75 13.558 1.75 13.0901V6.57642C1.75 6.10843 1.74978 5.71339 1.77539 5.39087C1.80165 5.06023 1.85875 4.74065 2.00977 4.43579C2.23858 3.97408 2.60534 3.59481 3.06152 3.35571C3.36488 3.19673 3.68291 3.13703 4.00879 3.10962C4.32547 3.08301 4.713 3.08325 5.16699 3.08325H14.834C15.2875 3.08325 15.674 3.08305 15.9902 3.10962C16.3161 3.13702 16.6342 3.19678 16.9375 3.35571C17.3929 3.59438 17.761 3.97326 17.9902 4.43579C18.1411 4.74042 18.1984 5.05968 18.2246 5.38989C18.2502 5.71201 18.25 6.10641 18.25 6.57349V13.093Z" fill="#C37437"/>
</svg>
