<svg width="24" height="24" viewBox="0 0 24 24" fill="none" xmlns="http://www.w3.org/2000/svg">
<rect width="24" height="24" rx="10" fill="#308D41"/>
<path d="M14.7396 17.9359V19.3057H9.26038V17.9359H14.7396ZM16.1094 16.566V7.43396C16.1094 6.67743 15.4962 6.06415 14.7396 6.06415H9.26038C8.50385 6.06415 7.89056 6.67743 7.89056 7.43396V16.566C7.89056 17.3226 8.50385 17.9359 9.26038 17.9359V19.3057C7.74732 19.3057 6.52075 18.0791 6.52075 16.566V7.43396C6.52075 5.92091 7.74732 4.69434 9.26038 4.69434H14.7396C16.2527 4.69434 17.4792 5.92091 17.4792 7.43396V16.566C17.4792 18.0791 16.2527 19.3057 14.7396 19.3057V17.9359C15.4962 17.9359 16.1094 17.3226 16.1094 16.566Z" fill="white"/>
<path d="M13 16.3791C13 16.9314 12.5523 17.3791 12 17.3791C11.4477 17.3791 11 16.9314 11 16.3791C11 15.8268 11.4477 15.3791 12 15.3791C12.5523 15.3791 13 15.8268 13 16.3791Z" fill="white"/>
</svg>
