<svg width="20" height="20" viewBox="0 0 20 20" fill="none" xmlns="http://www.w3.org/2000/svg">
<path d="M13 16.5V18H7V16.5H13ZM14.5 15V5C14.5 4.17157 13.8284 3.5 13 3.5H7C6.17157 3.5 5.5 4.17157 5.5 5V15C5.5 15.8284 6.17157 16.5 7 16.5V18C5.34315 18 4 16.6569 4 15V5C4 3.34315 5.34315 2 7 2H13C14.6569 2 16 3.34315 16 5V15C16 16.6569 14.6569 18 13 18V16.5C13.8284 16.5 14.5 15.8284 14.5 15Z" fill="#C37437"/>
<path d="M11 15C11 15.5523 10.5523 16 10 16C9.44772 16 9 15.5523 9 15C9 14.4477 9.44772 14 10 14C10.5523 14 11 14.4477 11 15Z" fill="#C37437"/>
</svg>
