<svg width="32" height="32" viewBox="0 0 32 32" fill="none" xmlns="http://www.w3.org/2000/svg">
<g clip-path="url(#clip0_323_2858)">
<path d="M24.0102 0H7.98979C3.57715 0 0 3.57715 0 7.98979V24.0102C0 28.4228 3.57715 32 7.98979 32H24.0102C28.4228 32 32 28.4228 32 24.0102V7.98979C32 3.57715 28.4228 0 24.0102 0Z" fill="url(#paint0_linear_323_2858)"/>
<path d="M24.0102 0H7.98979C3.57715 0 0 3.57715 0 7.98979V24.0102C0 28.4228 3.57715 32 7.98979 32H24.0102C28.4228 32 32 28.4228 32 24.0102V7.98979C32 3.57715 28.4228 0 24.0102 0Z" fill="url(#paint1_radial_323_2858)"/>
<path fill-rule="evenodd" clip-rule="evenodd" d="M16.217 26.0224C14.23 26.0224 13.3066 25.7324 11.7016 24.5721C10.6863 25.8774 7.47138 26.8975 7.33116 25.1522C7.33116 23.8421 7.04109 22.735 6.71234 21.5264C6.32075 20.0373 5.87598 18.3791 5.87598 15.9764C5.87598 10.2378 10.5848 5.92059 16.1638 5.92059C21.7476 5.92059 26.1229 10.4505 26.1229 16.0295C26.1416 21.5223 21.7097 25.9931 16.217 26.0224ZM16.2992 10.8808C13.5822 10.7406 11.4647 12.6212 10.9957 15.5703C10.609 18.0117 11.2955 20.9849 11.8804 21.1396C12.1608 21.2073 12.8667 20.6368 13.3066 20.1969C14.0341 20.6994 14.8812 21.0013 15.7626 21.0719C18.5778 21.2073 20.9833 19.0641 21.1723 16.2519C21.2824 13.4338 19.1148 11.0469 16.2992 10.8856V10.8808Z" fill="white"/>
</g>
<defs>
<linearGradient id="paint0_linear_323_2858" x1="3.7711" y1="24.3372" x2="32" y2="16" gradientUnits="userSpaceOnUse">
<stop stop-color="#44CCFF"/>
<stop offset="0.662" stop-color="#5533EE"/>
<stop offset="1" stop-color="#9933DD"/>
</linearGradient>
<radialGradient id="paint1_radial_323_2858" cx="0" cy="0" r="1" gradientUnits="userSpaceOnUse" gradientTransform="translate(-0.761305 -14.0539) rotate(51.356) scale(38.8325 16)">
<stop stop-color="#0000FF"/>
<stop offset="1" stop-opacity="0"/>
</radialGradient>
<clipPath id="clip0_323_2858">
<rect width="32" height="32" fill="white"/>
</clipPath>
</defs>
</svg>
