<svg width="56" height="56" viewBox="0 0 56 56" fill="none" xmlns="http://www.w3.org/2000/svg">
<rect width="56" height="56" rx="16" fill="#282828"/>
<path d="M28 13C19.7288 13 13 19.7288 13 28C13 36.2713 19.7288 43 28 43C36.2713 43 43 36.2713 43 28C43 19.7288 36.2713 13 28 13ZM28 40.5C21.1075 40.5 15.5 34.8925 15.5 28C15.5 21.1075 21.1075 15.5 28 15.5C34.8925 15.5 40.5 21.1075 40.5 28C40.5 34.8925 34.8925 40.5 28 40.5Z" fill="#FFC342"/>
<path fill-rule="evenodd" clip-rule="evenodd" d="M25.9514 27.7253C26.1194 27.905 26.1157 28.1854 25.9429 28.3606C25.6571 28.6504 25.8624 29.1413 26.2694 29.1413H26.3994V26.8928H26.2883C25.8648 26.8928 25.6455 27.3982 25.9347 27.7075L25.9514 27.7253ZM26.3994 22.7536V22.3824C26.3994 22.0457 25.987 21.8829 25.7571 22.1289C25.5353 22.3661 25.7035 22.7536 26.0282 22.7536H26.3994Z" fill="#FFC342"/>
<path d="M25.9514 27.7253C26.1194 27.905 26.1157 28.1854 25.9429 28.3606C25.6571 28.6504 25.8624 29.1413 26.2694 29.1413H26.3994V34.4729C26.3994 35.0373 25.9418 35.4949 25.3773 35.4949H24.6619C24.0975 35.4949 23.6399 35.0373 23.6399 34.4729V21.5272C23.6399 20.9627 24.0975 20.5051 24.6619 20.5051H28.8011C29.8686 20.5051 30.7884 20.6811 31.5606 21.0332C32.3328 21.3738 32.929 21.8678 33.3492 22.5151C33.7693 23.1624 33.9794 23.9346 33.9794 24.8317C33.9794 25.7175 33.7693 26.484 33.3492 27.1313C32.929 27.7786 32.3328 28.2782 31.5606 28.6303C30.7884 28.9709 29.8686 29.1413 28.8011 29.1413H26.3994V26.8928H28.6478C29.4995 26.8928 30.1354 26.7111 30.5556 26.3477C30.9758 25.9843 31.1859 25.479 31.1859 24.8317C31.1859 24.1731 30.9758 23.6621 30.5556 23.2987C30.1354 22.9353 29.4995 22.7536 28.6478 22.7536H26.3994V22.3824C26.3994 22.0457 25.987 21.8829 25.7571 22.1289C25.5353 22.3661 25.7035 22.7536 26.0282 22.7536H26.3994V26.8928H26.2883C25.8648 26.8928 25.6455 27.3982 25.9347 27.7075L25.9514 27.7253Z" fill="#FFC342"/>
<path d="M22.0206 31.4068C22.0206 30.8423 22.4782 30.3847 23.0426 30.3847H30.5354C31.0999 30.3847 31.5574 30.8423 31.5574 31.4068V31.7474C31.5574 32.3119 31.0999 32.7695 30.5354 32.7695H23.0426C22.4782 32.7695 22.0206 32.3119 22.0206 31.7474V31.4068Z" fill="#FFC342"/>
<path d="M22.0206 27.9183C22.0206 27.3539 22.4782 26.8963 23.0426 26.8963H27.6772C28.2416 26.8963 28.6992 27.3539 28.6992 27.9183V28.1123C28.6992 28.6767 28.2416 29.1343 27.6772 29.1343H23.0426C22.4782 29.1343 22.0206 28.6767 22.0206 28.1123V27.9183Z" fill="#FFC342"/>
</svg>
