<svg width="52" height="52" viewBox="0 0 52 52" fill="none" xmlns="http://www.w3.org/2000/svg">
<rect width="52" height="52" rx="16" fill="#F6DBC6"/>
<path d="M40.1632 23.9902C40.9175 23.9902 41.2852 24.9038 40.7387 25.4197L26.5779 38.772C26.2555 39.076 25.7492 39.076 25.4268 38.772L11.267 25.4197C10.7202 24.904 11.0874 23.9906 11.8416 23.9902H40.1632ZM16.7605 15.2462C17.0903 14.898 17.648 14.898 17.9778 15.2462L23.5103 21.0868C24.0112 21.6159 23.6333 22.4833 22.9016 22.4834H11.8367C11.1053 22.4832 10.7273 21.6159 11.228 21.0868L16.7605 15.2462ZM33.9977 15.2462C34.3275 14.898 34.8852 14.898 35.215 15.2462L40.7475 21.0868C41.2484 21.616 40.8705 22.4834 40.1388 22.4834H29.0739C28.3425 22.4832 27.9645 21.6159 28.4652 21.0868L33.9977 15.2462ZM32.1143 13C32.8449 13 33.2239 13.8659 32.7249 14.3956L26.797 20.6876C26.4669 21.0381 25.9069 21.0381 25.5768 20.6876L19.649 14.3956C19.15 13.8659 19.5289 13 20.2596 13H32.1143Z" fill="#C37437"/>
</svg>
