<svg width="20" height="20" viewBox="0 0 20 20" fill="none" xmlns="http://www.w3.org/2000/svg">
<path d="M3 5.00844C3 3.89911 3.89929 3.00001 5.00844 3H6.94103C7.79247 3.00007 8.55828 3.51842 8.8745 4.30897L9.61542 6.16041C9.89971 6.87114 9.7704 7.6805 9.28112 8.26764L8.88243 8.74572C8.64228 9.03429 8.66185 9.45922 8.9283 9.72568L10.2743 11.0726C10.5402 11.3385 10.965 11.3577 11.2543 11.1167L11.7324 10.718C12.32 10.2283 13.1288 10.1007 13.8387 10.3846L15.691 11.1255L15.8357 11.1899C16.5442 11.5377 17 12.2606 17 13.059V14.9916L16.9894 15.1971C16.8865 16.2096 16.0314 16.9999 14.9916 17C8.36901 17 3.00005 11.6311 3 5.00844ZM4.35484 5.00844C4.35489 10.8829 9.11729 15.6452 14.9916 15.6452C15.3523 15.6451 15.6451 15.3526 15.6452 14.9916V13.059C15.6452 12.7615 15.4643 12.4939 15.1883 12.3833L13.3359 11.6424C13.0878 11.5431 12.8054 11.5881 12.6003 11.7588L12.1222 12.1575C11.3467 12.8038 10.2281 12.7965 9.46371 12.1654L9.31552 12.0305L7.96951 10.6836C7.20854 9.92248 7.15174 8.70564 7.84161 7.87777L8.2403 7.3997C8.39019 7.21975 8.44378 6.9811 8.38848 6.75844L8.35761 6.66406L7.61668 4.81263C7.50621 4.53644 7.23845 4.35491 6.94103 4.35484H5.00844C4.64739 4.35485 4.35484 4.64752 4.35484 5.00844Z" fill="#C37437"/>
</svg>
