<svg width="94" height="42" viewBox="0 0 94 42" fill="none" xmlns="http://www.w3.org/2000/svg">
<path d="M43.5167 14.4684C43.1041 15.1169 42.6253 15.7212 42.0801 16.2812C41.5496 16.8413 40.9308 17.3424 40.2235 17.7845C40.1941 18.1677 40.1351 18.5509 40.0467 18.9341C39.9583 19.3173 39.8478 19.7225 39.7152 20.15C39.4942 20.8426 39.17 21.5501 38.7427 22.2722C38.3301 22.9797 37.8439 23.6502 37.284 24.284C36.7241 24.9177 36.1052 25.4999 35.4274 26.0304C34.7497 26.5462 34.035 26.9663 33.2836 27.2905C32.5468 27.6148 31.7806 27.8137 30.985 27.8874C30.2041 27.9611 29.4231 27.8727 28.6422 27.6221C28.0086 27.4158 27.4634 27.0473 27.0067 26.5168C26.5499 25.9715 26.211 25.323 25.99 24.5714C25.769 23.8197 25.6806 22.987 25.7248 22.0733C25.769 21.1448 25.9826 20.2015 26.3657 19.2436C25.8942 18.9193 25.5037 18.5288 25.1943 18.0719C24.8996 17.615 24.7228 17.0771 24.6639 16.4581C24.5607 15.3969 24.7081 14.4463 25.1059 13.6063C25.5037 12.7515 26.071 12.0293 26.8077 11.4398C27.5445 10.8355 28.3917 10.3639 29.3494 10.0249C30.3219 9.68596 31.3165 9.49437 32.3332 9.45015C33.3499 9.40594 34.3445 9.52384 35.3169 9.80386C36.3041 10.0691 37.1735 10.5113 37.9249 11.1303C38.6911 11.7345 39.2953 12.523 39.7373 13.4957C40.1793 14.4684 40.3709 15.6401 40.3119 17.0108C40.9161 16.6128 41.476 16.1854 41.9917 15.7285C42.5074 15.2717 42.9052 14.7706 43.1852 14.2253C43.2294 14.1516 43.281 14.1 43.3399 14.0705C43.4136 14.0263 43.4725 14.0116 43.5167 14.0263C43.5756 14.041 43.6125 14.0853 43.6272 14.1589C43.6419 14.2326 43.6051 14.3358 43.5167 14.4684ZM38.9637 17.7182C39.0963 16.2591 38.9932 15.0211 38.6543 14.0042C38.3154 12.9725 37.8292 12.1472 37.1956 11.5282C36.562 10.8945 35.8179 10.445 34.9633 10.1797C34.1234 9.9144 33.2615 9.81123 32.3774 9.87018C31.4933 9.9144 30.624 10.1134 29.7694 10.4671C28.9295 10.806 28.1928 11.2703 27.5592 11.8598C26.9404 12.4493 26.4688 13.1494 26.1447 13.96C25.8205 14.7706 25.7321 15.6696 25.8795 16.657C25.9679 17.3497 26.2626 17.9098 26.7635 18.3372C26.9698 17.9098 27.2424 17.4234 27.5813 16.8781C27.9202 16.3328 28.3107 15.7949 28.7527 15.2643C29.1947 14.719 29.6736 14.2105 30.1893 13.7389C30.7198 13.2526 31.2649 12.8694 31.8249 12.5893C32.3848 12.2946 32.952 12.1251 33.5267 12.0809C34.1013 12.0219 34.6686 12.1472 35.2285 12.4567C35.3906 12.5451 35.4348 12.6336 35.3611 12.722C35.3022 12.7957 35.1991 12.8104 35.0517 12.7662C34.5949 12.6188 34.1161 12.6262 33.6151 12.7883C33.1289 12.9504 32.6426 13.2083 32.1564 13.5621C31.6849 13.9158 31.2207 14.3358 30.764 14.8222C30.3219 15.3085 29.9094 15.8096 29.5263 16.3254C29.1579 16.8413 28.8264 17.3497 28.5317 17.8508C28.2517 18.3372 28.0381 18.7498 27.8907 19.0888C28.5391 19.413 29.3126 19.6194 30.2114 19.7078C31.1102 19.7815 32.0532 19.752 33.0404 19.6194C34.0424 19.4867 35.0517 19.2583 36.0684 18.9341C37.0998 18.6098 38.0649 18.2045 38.9637 17.7182ZM38.8311 18.4919C37.9176 18.9783 36.9525 19.3836 35.9358 19.7078C34.9191 20.0173 33.9098 20.231 32.9078 20.3489C31.9206 20.4668 30.9629 20.4889 30.0346 20.4152C29.1063 20.3415 28.2812 20.1573 27.5592 19.8626C27.294 20.5552 27.1024 21.2627 26.9846 21.9848C26.8667 22.707 26.8446 23.3923 26.9183 24.0408C27.0067 24.6745 27.1908 25.2493 27.4708 25.7651C27.7655 26.2662 28.1781 26.6494 28.7085 26.9147C29.3568 27.2389 30.0051 27.3937 30.6535 27.3789C31.3165 27.3642 31.9648 27.2168 32.5984 26.9368C33.2467 26.6715 33.8656 26.3031 34.455 25.8315C35.0443 25.3451 35.5895 24.7998 36.0905 24.1955C36.5915 23.5765 37.0409 22.9133 37.4387 22.2059C37.8513 21.4985 38.1828 20.7837 38.4333 20.0615C38.5217 19.811 38.6027 19.5531 38.6764 19.2878C38.7501 19.0078 38.8017 18.7425 38.8311 18.4919Z" fill="black"/>
<path d="M38.1147 31.4024C37.8937 31.874 37.6874 32.1909 37.4959 32.353C37.2896 32.5151 37.0023 32.5815 36.6339 32.552C36.4865 32.5373 36.3392 32.5078 36.1919 32.4636C36.0298 32.4194 35.8677 32.412 35.7056 32.4415C35.794 32.353 35.9635 32.0951 36.214 31.6677C36.4644 31.255 36.7518 30.7392 37.0759 30.1202C37.4001 29.516 37.7464 28.8528 38.1147 28.1306C38.4831 27.4084 38.822 26.701 39.1314 26.0083C39.4556 25.3156 39.7281 24.6819 39.9492 24.1071C40.1849 23.5176 40.3396 23.0533 40.4133 22.7144C40.2954 22.906 40.1628 23.0312 40.0155 23.0902C39.8681 23.1344 39.8313 23.0754 39.905 22.9133C39.9639 22.7954 40.0376 22.6333 40.126 22.427C40.2144 22.2206 40.2881 22.0512 40.347 21.9185C40.4501 21.6827 40.5385 21.4101 40.6122 21.1006C40.7006 20.7911 40.7522 20.4963 40.7669 20.2163C40.7964 19.9363 40.789 19.7004 40.7448 19.5088C40.7006 19.3025 40.6122 19.1846 40.4796 19.1551C40.6417 19.1257 40.7964 19.0962 40.9437 19.0667C41.0616 19.0372 41.1795 19.0225 41.2974 19.0225C41.43 19.0078 41.5184 18.993 41.5626 18.9783C41.7247 18.9635 41.8573 18.9562 41.9604 18.9562C42.0636 18.9414 42.1446 18.9562 42.2035 19.0004C42.2625 19.0446 42.2993 19.1404 42.3141 19.2878C42.3435 19.4204 42.3583 19.6194 42.3583 19.8847C42.3583 20.1057 42.3214 20.371 42.2477 20.6805C42.1888 20.9753 42.1151 21.2848 42.0267 21.609C41.9383 21.9333 41.8425 22.2501 41.7394 22.5596C41.6363 22.8691 41.5405 23.1418 41.4521 23.3776C41.6731 23.0976 41.9531 22.7733 42.292 22.4049C42.6308 22.0217 42.9697 21.6827 43.3086 21.3879C43.5739 21.1521 43.898 20.9016 44.2811 20.6363C44.6789 20.3563 45.0768 20.1131 45.4746 19.9068C45.8724 19.6857 46.2408 19.5162 46.5797 19.3983C46.9333 19.2804 47.2059 19.2509 47.3975 19.3099C46.9554 20.1057 46.5502 20.8647 46.1819 21.5869C46.0198 21.8964 45.8577 22.2133 45.6956 22.5375C45.5483 22.8617 45.4083 23.1786 45.2757 23.4881C45.1431 23.7829 45.0252 24.0629 44.9221 24.3282C44.8337 24.5935 44.7747 24.8219 44.7453 25.0135C44.6568 25.4704 44.6568 25.7725 44.7453 25.9199C44.8337 26.0525 44.9515 26.1189 45.0989 26.1189C45.3788 26.1189 45.6735 25.9641 45.983 25.6546C46.2924 25.3451 46.5871 24.984 46.867 24.5714C47.147 24.144 47.3975 23.7166 47.6185 23.2892C47.8395 22.8617 48.009 22.5301 48.1268 22.2943C48.2152 22.1027 48.311 22.0364 48.4141 22.0954C48.532 22.1396 48.5394 22.2722 48.4362 22.4933C48.2742 22.8323 48.0679 23.2376 47.8174 23.7092C47.5816 24.1808 47.3091 24.6377 46.9996 25.0798C46.6902 25.5072 46.3513 25.8757 45.983 26.1852C45.6146 26.4947 45.2168 26.6494 44.7895 26.6494C44.5979 26.6494 44.399 26.6126 44.1927 26.5389C43.9864 26.4652 43.8096 26.3325 43.6623 26.141C43.5297 25.9346 43.4486 25.6693 43.4191 25.3451C43.3897 25.0061 43.456 24.5787 43.6181 24.0629C43.7065 23.7681 43.8538 23.4365 44.0601 23.0681C44.2664 22.6849 44.5242 22.2428 44.8337 21.7417C44.9663 21.5206 45.0399 21.329 45.0547 21.1669C45.0694 21.0048 45.0105 20.909 44.8779 20.8795C44.76 20.85 44.5684 20.909 44.3032 21.0563C44.038 21.2037 43.6917 21.4764 43.2644 21.8743C43.0729 22.0512 42.8519 22.2575 42.6014 22.4933C42.3656 22.7291 42.1078 23.0239 41.8278 23.3776C41.5626 23.7166 41.29 24.1218 41.01 24.5935C40.7301 25.0651 40.4575 25.6178 40.1923 26.2515L38.1147 31.4024Z" fill="black"/>
<path d="M55.6281 22.4933C55.4513 22.8765 55.245 23.3039 55.0093 23.7755C54.7735 24.2324 54.5083 24.6672 54.2136 25.0798C53.9189 25.4925 53.5948 25.8388 53.2411 26.1189C52.8875 26.3989 52.5118 26.5389 52.114 26.5389C51.8635 26.5389 51.6425 26.4799 51.4509 26.362C51.2594 26.2294 51.112 26.0452 51.0089 25.8094C50.9205 25.5588 50.8763 25.2567 50.8763 24.903C50.8763 24.5492 50.9499 24.1513 51.0973 23.7092C50.9057 24.0482 50.6921 24.3871 50.4563 24.7261C50.2353 25.0503 49.9922 25.3525 49.727 25.6325C49.4765 25.8978 49.2113 26.1188 48.9313 26.2957C48.6513 26.4578 48.3788 26.5389 48.1135 26.5389C47.9957 26.5389 47.863 26.5315 47.7157 26.5168C47.5831 26.4873 47.4505 26.4357 47.3179 26.362C47.1853 26.2883 47.06 26.1852 46.9421 26.0525C46.839 25.9199 46.7653 25.7504 46.7211 25.5441C46.6769 25.3083 46.6695 25.0798 46.699 24.8587C46.7285 24.6377 46.7801 24.424 46.8537 24.2176C46.9421 23.9966 47.0379 23.7902 47.1411 23.5986C47.2589 23.3923 47.3694 23.186 47.4726 22.9797C47.3989 22.9797 47.3252 22.9575 47.2516 22.9133C47.1926 22.8691 47.2 22.7733 47.2737 22.6259C47.3473 22.508 47.4136 22.3828 47.4726 22.2501C47.5315 22.1175 47.5978 21.9848 47.6715 21.8522C47.8925 21.4248 48.1135 20.9974 48.3345 20.57C48.5556 20.1426 48.7471 19.7594 48.9092 19.4204C48.9976 19.2436 49.1081 19.1257 49.2407 19.0667C49.3881 18.993 49.5649 18.9562 49.7712 18.9562H51.1194C50.9868 19.0446 50.8689 19.1404 50.7658 19.2436C50.6626 19.332 50.5521 19.4425 50.4342 19.5752C50.3311 19.7078 50.2206 19.8699 50.1027 20.0615C49.9848 20.2531 49.8522 20.5037 49.7049 20.8132C49.4986 21.1964 49.3144 21.5648 49.1523 21.9185C48.9902 22.228 48.8355 22.5449 48.6882 22.8691C48.5408 23.1933 48.4156 23.4586 48.3124 23.665C48.0472 24.2398 47.8999 24.7187 47.8704 25.1019C47.8409 25.4851 47.8925 25.7578 48.0251 25.9199C48.1725 26.0673 48.3861 26.0894 48.6661 25.9862C48.946 25.8683 49.2628 25.603 49.6165 25.1904C49.9259 24.8366 50.2279 24.4166 50.5226 23.9303C50.8321 23.4439 51.1267 22.9428 51.4067 22.427C51.6867 21.8964 51.9519 21.3732 52.2024 20.8574C52.4676 20.3415 52.7033 19.8626 52.9096 19.4204C52.998 19.2436 53.1085 19.1257 53.2411 19.0667C53.3885 18.993 53.5653 18.9562 53.7716 18.9562H54.9651C54.803 19.0888 54.663 19.2141 54.5452 19.332C54.4273 19.4352 54.3094 19.5678 54.1915 19.7299C54.0884 19.8773 53.9779 20.0689 53.86 20.3047C53.7421 20.5258 53.6021 20.8058 53.4401 21.1448C53.278 21.4543 53.1159 21.7785 52.9538 22.1175C52.8065 22.4417 52.6591 22.7659 52.5118 23.0902C52.3792 23.3997 52.2613 23.6944 52.1582 23.9745C52.055 24.2398 51.9887 24.4682 51.9592 24.6598C51.8561 25.1314 51.8561 25.4704 51.9592 25.6767C52.0771 25.8683 52.2171 25.9715 52.3792 25.9862C52.6444 25.9862 52.9096 25.8683 53.1748 25.6325C53.4548 25.3967 53.72 25.1019 53.9705 24.7482C54.221 24.3798 54.4568 23.9818 54.6778 23.5544C54.9135 23.1123 55.1272 22.6923 55.3187 22.2943C55.4071 22.1027 55.5029 22.0364 55.606 22.0954C55.7239 22.1396 55.7313 22.2722 55.6281 22.4933Z" fill="black"/>
<path d="M62.4227 22.4049C62.3343 22.6112 62.187 22.9354 61.9807 23.3776C61.7891 23.8197 61.546 24.2619 61.2513 24.704C60.9566 25.1461 60.6104 25.5367 60.2125 25.8757C59.8294 26.2146 59.4095 26.3841 58.9527 26.3841C58.6138 26.3841 58.3265 26.3326 58.0908 26.2294C57.8698 26.1115 57.6856 25.9715 57.5382 25.8094C57.2288 26.0452 56.912 26.2368 56.5878 26.3841C56.2637 26.5168 55.9395 26.5757 55.6154 26.561C55.1881 26.5462 54.8492 26.421 54.5987 26.1852C54.3629 25.9494 54.2009 25.6472 54.1124 25.2788C54.0388 24.8956 54.0388 24.4682 54.1124 23.9966C54.1861 23.5102 54.3261 23.0239 54.5324 22.5375C54.7534 22.0364 55.026 21.5574 55.3501 21.1006C55.6743 20.6437 56.0206 20.2457 56.3889 19.9068C56.772 19.5678 57.1625 19.3025 57.5603 19.1109C57.9582 18.9046 58.3486 18.8088 58.7317 18.8235C59.1443 18.8235 59.4758 18.9414 59.7263 19.1772C59.9768 19.4131 60.1389 19.7225 60.2125 20.1057C60.3009 20.4889 60.3083 20.9237 60.2346 21.4101C60.161 21.8817 60.021 22.3607 59.8147 22.847C59.6526 23.2302 59.4095 23.665 59.0854 24.1513C58.7612 24.6229 58.3855 25.0577 57.9582 25.4556C58.1497 25.8241 58.496 26.0083 58.9969 26.0083C59.3506 26.0083 59.6821 25.8609 59.9915 25.5662C60.3157 25.2714 60.6104 24.9177 60.8756 24.505C61.1408 24.0924 61.3766 23.6723 61.5829 23.2449C61.7891 22.8175 61.9586 22.4712 62.0912 22.2059C62.1501 22.088 62.2385 22.0512 62.3564 22.0954C62.4743 22.1396 62.4964 22.2428 62.4227 22.4049ZM59.1959 19.5531C58.9601 19.4941 58.7023 19.531 58.4223 19.6636C58.1423 19.7815 57.8624 19.9805 57.5824 20.2605C57.3025 20.5258 57.0299 20.85 56.7647 21.2332C56.4994 21.6016 56.2637 22.0069 56.0574 22.4491C55.8364 22.906 55.6596 23.3407 55.527 23.7534C55.4091 24.1513 55.3354 24.5124 55.3059 24.8366C55.2765 25.1609 55.2986 25.4335 55.3722 25.6546C55.4459 25.8609 55.5859 25.9936 55.7922 26.0525C55.9985 26.1115 56.2342 26.0894 56.4994 25.9862C56.7647 25.883 57.0299 25.7209 57.2951 25.4999C57.1772 25.323 57.0888 25.1388 57.0299 24.9472C56.9709 24.7556 56.9415 24.5787 56.9415 24.4166C56.9562 24.1661 57.0151 23.945 57.1183 23.7534C57.2362 23.5618 57.4351 23.466 57.715 23.466C57.9066 23.466 58.0613 23.5323 58.1792 23.665C58.3118 23.7976 58.3781 23.9524 58.3781 24.1292C58.3781 24.1734 58.3707 24.2176 58.356 24.2619C58.356 24.2913 58.3486 24.3282 58.3339 24.3724C58.5844 24.0039 58.8128 23.606 59.019 23.1786C59.2401 22.7217 59.4095 22.287 59.5274 21.8743C59.6453 21.4616 59.7116 21.0932 59.7263 20.7689C59.741 20.4447 59.7042 20.1794 59.6158 19.9731C59.5274 19.752 59.3874 19.612 59.1959 19.5531Z" fill="black"/>
<path d="M62.1566 23.3776C62.0682 23.5692 61.9946 23.7239 61.9356 23.8418C61.8767 23.9597 61.8104 24.1071 61.7367 24.284C61.663 24.4608 61.5599 24.6966 61.4273 24.9914C61.2947 25.2862 61.1105 25.7062 60.8747 26.2515C60.7863 26.4136 60.6832 26.5094 60.5653 26.5389C60.4474 26.5684 60.2706 26.5831 60.0349 26.5831C59.8728 26.5978 59.7402 26.6052 59.637 26.6052C59.5191 26.6052 59.4013 26.642 59.2834 26.7157C59.8138 25.6546 60.3148 24.6082 60.7863 23.5765C61.2726 22.5449 61.7883 21.528 62.3334 20.5258C62.6134 19.9952 62.8565 19.6268 63.0628 19.4204C63.2691 19.2141 63.549 19.1183 63.9027 19.133C64.05 19.1478 64.1974 19.1772 64.3447 19.2215C64.5068 19.2509 64.6689 19.2509 64.831 19.2215C64.6689 19.3099 64.47 19.5015 64.2342 19.7962C64.0132 20.091 63.7774 20.4373 63.5269 20.8353C63.2912 21.2332 63.0481 21.6606 62.7976 22.1175C62.5618 22.5596 62.3482 22.9797 62.1566 23.3776ZM66.0686 23.3776C65.9655 23.5839 65.855 23.8418 65.7371 24.1513C65.634 24.4461 65.5603 24.7408 65.5161 25.0356C65.4719 25.3156 65.4793 25.5588 65.5382 25.7651C65.6119 25.9715 65.7813 26.0746 66.0466 26.0746C66.3265 26.0746 66.6138 25.9199 66.9085 25.6104C67.2179 25.3009 67.5053 24.9398 67.7705 24.5271C68.0357 24.1145 68.2715 23.7018 68.4777 23.2892C68.6988 22.8617 68.8682 22.5301 68.9861 22.2943C69.0745 22.1027 69.1703 22.0364 69.2734 22.0954C69.3913 22.1396 69.3987 22.2722 69.2955 22.4933C69.1334 22.8323 68.9272 23.2376 68.6767 23.7092C68.4409 24.1808 68.1683 24.6377 67.8589 25.0798C67.5495 25.5072 67.2106 25.8757 66.8422 26.1852C66.4739 26.4947 66.076 26.6494 65.6487 26.6494C65.4719 26.6494 65.2951 26.6052 65.1183 26.5168C64.9562 26.4136 64.8015 26.2589 64.6541 26.0525C64.5363 25.8609 64.4405 25.5735 64.3668 25.1904C64.2931 24.8072 64.3226 24.4461 64.4552 24.1071C64.632 23.7387 64.7868 23.4144 64.9194 23.1344C65.052 22.8396 65.1846 22.5596 65.3172 22.2943C65.4498 22.029 65.5898 21.7564 65.7371 21.4764C65.8845 21.1964 66.0539 20.8795 66.2455 20.5258C66.5254 19.9952 66.7685 19.6268 66.9748 19.4204C67.1811 19.2141 67.4611 19.1183 67.8147 19.133C67.962 19.1478 68.1094 19.1772 68.2567 19.2215C68.4188 19.2509 68.5809 19.2509 68.743 19.2215C68.5809 19.3099 68.382 19.5015 68.1462 19.7962C67.9252 20.091 67.6895 20.4373 67.439 20.8353C67.2032 21.2332 66.9601 21.6606 66.7096 22.1175C66.4739 22.5596 66.2602 22.9797 66.0686 23.3776ZM65.6929 22.1617C65.6045 22.4122 65.4498 22.6554 65.2288 22.8912C65.0078 23.1123 64.7499 23.2081 64.4552 23.1786C64.19 23.1639 63.9248 23.0902 63.6596 22.9575C63.4091 22.8102 63.1586 22.7291 62.9081 22.7144C62.7607 22.6996 62.6281 22.7365 62.5103 22.8249C62.3924 22.8986 62.304 22.9944 62.245 23.1123C62.2303 23.1418 62.1714 23.1565 62.0682 23.1565C61.9651 23.1565 61.9282 23.1344 61.9577 23.0902C62.0756 22.8691 62.2377 22.648 62.444 22.427C62.665 22.2059 62.9228 22.1101 63.2175 22.1396C63.4975 22.1543 63.7553 22.228 63.9911 22.3607C64.2416 22.4786 64.4921 22.5522 64.7425 22.5817C64.9194 22.6112 65.0593 22.5817 65.1625 22.4933C65.2656 22.4049 65.354 22.2943 65.4277 22.1617C65.4572 22.1322 65.5161 22.1175 65.6045 22.1175C65.6929 22.1175 65.7224 22.1322 65.6929 22.1617Z" fill="black"/>
<path d="M47 2.86674C48.7994 0.378073 52.9635 -0.372428 56.2744 2.11721C58.0858 3.47921 60.0161 4.00102 62.6452 4.23525C63.9643 4.35276 65.4484 4.39715 67.1771 4.44176C68.9025 4.48628 70.8647 4.53118 73.1241 4.65041C76.5683 4.83222 78.8529 5.80497 80.3127 7.05895C81.6024 8.16688 82.2255 9.47629 82.4384 10.5942H82.6122C82.6189 10.5944 82.6208 10.5947 82.6227 10.5947C84.07 10.6043 84.9351 10.9153 85.5137 11.0859C87.1791 11.5766 88.2901 12.1977 89.408 13.0316C90.5385 13.875 91.4775 14.9509 92.1608 16.1881C92.8441 17.4253 93.2563 18.7951 93.3694 20.2054C93.4826 21.6156 93.2936 23.0339 92.8163 24.3649C92.339 25.6959 91.5843 26.9091 90.6024 27.9232C89.6302 28.9272 88.2939 29.909 86.9713 30.4307C85.7105 30.928 83.9759 31.4829 82.5329 31.4097L82.4389 31.4049C82.226 32.5238 81.602 33.8348 80.3101 34.9434C78.8501 36.1961 76.5661 37.1676 73.1241 37.3493C70.8647 37.4685 68.9025 37.5133 67.1771 37.5579C65.4485 37.6026 63.9643 37.6468 62.6452 37.7644C60.0161 37.9988 58.0858 38.521 56.2744 39.883C52.9631 42.3729 48.799 41.6213 47 39.1319C45.2011 41.6214 41.0366 42.373 37.7251 39.883C35.9138 38.521 33.9837 37.9988 31.3548 37.7644C30.0359 37.6468 28.5516 37.6026 26.823 37.5579C25.0977 37.5133 23.1353 37.4685 20.876 37.3493C17.4337 37.1676 15.1496 36.1962 13.6895 34.9434C12.3974 33.8347 11.773 32.5238 11.5601 31.4049L11.4666 31.4097C10.0236 31.483 8.28905 30.928 7.02825 30.4307C5.70567 29.909 4.36931 28.9272 3.39717 27.9232C2.41528 26.9091 1.66053 25.6959 1.18322 24.3649C0.705932 23.0339 0.517009 21.6156 0.630133 20.2054C0.743305 18.7951 1.1555 17.4253 1.83874 16.1881C2.52193 14.9511 3.46061 13.875 4.59107 13.0316C5.70901 12.1977 6.82045 11.5766 8.48582 11.0859C9.06436 10.9154 9.92964 10.6044 11.3763 10.5947L11.3873 10.5942H11.5612C11.7741 9.4763 12.3972 8.16686 13.6869 7.05895C15.1467 5.80497 17.4316 4.83219 20.876 4.65041C23.1353 4.53119 25.0977 4.48629 26.823 4.44176C28.5516 4.39714 30.0359 4.35278 31.3548 4.23525C33.9838 4.001 35.9138 3.47913 37.7251 2.11721C41.0361 -0.372456 45.2007 0.377965 47 2.86674ZM55.7818 2.79665C52.5483 0.365358 48.6162 1.44677 47.3667 3.85487L47 4.56106L46.6334 3.85487C45.3839 1.4467 41.4513 0.365294 38.2178 2.79665C36.2349 4.2876 34.1334 4.83564 31.4268 5.0768C30.0781 5.19697 28.5684 5.24147 26.844 5.28598C25.116 5.33058 23.1653 5.37503 20.9191 5.49356C17.6072 5.66833 15.5103 6.59769 14.2216 7.70469C12.9328 8.8118 12.4238 10.12 12.3218 11.1126L12.274 11.578L11.8243 11.4817C11.7011 11.4554 11.5727 11.4408 11.4404 11.4389L11.4099 11.4384C11.4099 11.4384 11.4078 11.4389 11.4062 11.4389H11.3842C10.0662 11.4475 9.30414 11.7236 8.71589 11.8969C7.15384 12.3572 6.1291 12.931 5.08061 13.7132C4.04498 14.4859 3.18627 15.4709 2.56149 16.6022C1.93669 17.7335 1.5603 18.9854 1.45688 20.2738C1.35351 21.5622 1.5254 22.8583 1.96165 24.075C2.39798 25.2917 3.08859 26.4019 3.98755 27.3304C4.89638 28.269 6.13727 29.1737 7.32764 29.6432C8.47342 30.0951 9.904 30.5447 11.0995 30.5693L11.4399 30.565C11.5723 30.5631 11.701 30.5486 11.8243 30.5222L12.2734 30.4259L12.3218 30.8908C12.4247 31.8835 12.9346 33.1909 14.2237 34.2971C15.5127 35.4032 17.6091 36.3314 20.9191 36.5061C23.1653 36.6246 25.116 36.669 26.844 36.7137C28.5685 36.7582 30.0781 36.8032 31.4268 36.9234C34.1334 37.1647 36.2349 37.7126 38.2178 39.2035C41.4516 41.6351 45.3842 40.5529 46.6334 38.1443L47 37.4375L47.3667 38.1443C48.6159 40.5528 52.5481 41.6349 55.7818 39.2035C57.7646 37.7125 59.8661 37.1647 62.5728 36.9234C63.9216 36.8032 65.4315 36.7582 67.1561 36.7137C68.8842 36.669 70.8347 36.6246 73.081 36.5061C76.3908 36.3314 78.4869 35.4031 79.7759 34.2971C81.065 33.1909 81.5749 31.8835 81.6778 30.8908L81.7261 30.4259L82.1752 30.5222C82.2984 30.5486 82.4268 30.5631 82.5592 30.565L82.8943 30.5698C84.091 30.5466 85.5243 30.0958 86.6719 29.6432C87.8623 29.1737 89.1032 28.269 90.012 27.3304C90.9109 26.402 91.6016 25.2917 92.0379 24.075C92.4742 22.8583 92.646 21.5622 92.5427 20.2738C92.4393 18.9854 92.0629 17.7335 91.4381 16.6022C90.8133 15.4709 89.9542 14.486 88.9184 13.7132C87.8699 12.931 86.8457 12.3572 85.2837 11.8969C84.6954 11.7235 83.9332 11.4474 82.6149 11.4389H82.5928C82.5907 11.4389 82.5886 11.4384 82.5886 11.4384L82.5587 11.4389C82.4265 11.4409 82.2982 11.4554 82.1752 11.4817L81.7256 11.578L81.6778 11.1126C81.5758 10.12 81.0667 8.81181 79.778 7.70469C78.4893 6.59771 76.3928 5.66836 73.081 5.49356C70.8347 5.37503 68.8842 5.33057 67.1561 5.28598C65.4315 5.24148 63.9216 5.19697 62.5728 5.0768C59.8661 4.83565 57.7646 4.28765 55.7818 2.79665ZM50.8654 5.16079C50.8394 4.81637 50.7242 4.49699 50.5424 4.22509L50.2671 3.81421L50.7104 3.6045C51.526 3.21877 52.8166 3.07779 54.3415 3.99504C55.5268 4.70811 56.6768 5.39882 58.2872 5.91781C59.8977 6.43681 61.9883 6.78985 65.0394 6.78985C67.9939 6.78985 70.8612 6.89858 73.2112 7.27777C74.3864 7.46739 75.4459 7.72664 76.3286 8.08079C77.2079 8.43358 77.9416 8.8922 78.4307 9.49906L78.6776 9.80508L78.3934 10.0758C78.0178 10.4332 77.7857 10.9357 77.7857 11.4919L77.7883 11.592C77.8404 12.6197 78.6895 13.4472 79.7422 13.4473C79.8871 13.4473 80.0289 13.431 80.1661 13.4008L80.5853 13.3082L80.662 13.7384C80.8238 14.6493 81.6204 15.3491 82.5875 15.3492C83.3492 15.3492 84.0062 14.9145 84.3298 14.283L84.4711 14.0075L84.7715 14.0626C84.8459 14.0763 84.9202 14.0913 84.9943 14.1075C85.9712 14.3206 86.8923 14.7407 87.6951 15.3396C88.498 15.9385 89.1652 16.7028 89.6506 17.5818C90.136 18.4607 90.429 19.4344 90.5094 20.4365C90.5898 21.4386 90.4551 22.4463 90.116 23.3918C89.7769 24.3373 89.2407 25.1989 88.5434 25.9191C87.846 26.6394 87.0033 27.2019 86.0726 27.569C85.6503 27.7356 85.2145 27.8597 84.7715 27.9414L84.4711 27.9965L84.3298 27.721C84.0062 27.0898 83.349 26.6553 82.5875 26.6553C81.6216 26.6554 80.8253 27.3533 80.662 28.2624L80.5853 28.6914L80.1667 28.5989C80.0303 28.5688 79.8882 28.5529 79.7422 28.5529C78.6555 28.553 77.7857 29.4347 77.7857 30.5083L77.7883 30.6121C77.8152 31.1263 78.0414 31.5881 78.3934 31.9233L78.6776 32.194L78.4307 32.5001C77.9417 33.107 77.2083 33.566 76.3292 33.9189C75.4465 34.2731 74.3865 34.5322 73.2112 34.7219C70.8612 35.1011 67.994 35.2098 65.0394 35.2098C61.9883 35.2098 59.8977 35.5628 58.2872 36.0818C56.6768 36.6008 55.5268 37.2916 54.3415 38.0046C52.8164 38.922 51.5264 38.7803 50.711 38.3946L50.2676 38.1849L50.5424 37.774C50.75 37.4633 50.8712 37.0911 50.8712 36.6901C50.8711 35.6166 50.0009 34.7347 48.9141 34.7347C48.2631 34.7348 47.6882 35.0523 47.3325 35.5394L47 35.9952L46.6676 35.5394C46.3342 35.0828 45.8078 34.7752 45.2068 34.7385L45.0855 34.7347C43.9987 34.7347 43.1285 35.6166 43.1284 36.6901C43.1284 37.0913 43.2493 37.4636 43.4567 37.774L43.7314 38.1854L43.2881 38.3946C42.4726 38.78 41.1828 38.9218 39.658 38.0046C38.4728 37.2916 37.3228 36.6008 35.7123 36.0818C34.1018 35.5628 32.0112 35.2098 28.9602 35.2098C26.0054 35.2098 23.1379 35.1012 20.7878 34.7219C19.6126 34.5322 18.553 34.2731 17.6704 33.9189C16.7913 33.566 16.0578 33.107 15.5689 32.5001L15.322 32.194L15.6062 31.9233C15.9586 31.5879 16.185 31.1259 16.2118 30.6115L16.2144 30.5083C16.2144 29.4347 15.3442 28.5529 14.2573 28.5529C14.1119 28.5529 13.97 28.5691 13.8329 28.5994L13.4143 28.692L13.3376 28.2629C13.1846 27.4104 12.4752 26.7433 11.5911 26.6633L11.412 26.6553C10.6502 26.6553 9.99271 27.0897 9.66922 27.721L9.52793 27.9965L9.22748 27.9414C8.78466 27.8597 8.3487 27.7356 7.92643 27.569C6.99571 27.2019 6.1535 26.6393 5.45616 25.9191C4.7589 25.1989 4.2222 24.3375 3.88303 23.3918C3.54391 22.4461 3.40982 21.4384 3.49014 20.4365C3.57054 19.4344 3.86351 18.4607 4.34893 17.5818C4.83436 16.7028 5.50162 15.9385 6.30445 15.3396C7.10719 14.7408 8.02787 14.3207 9.00478 14.1075C9.07882 14.0913 9.15318 14.0763 9.22748 14.0626L9.52793 14.0075L9.66922 14.283C9.99269 14.9145 10.6502 15.3492 11.412 15.3492L11.5911 15.3412C12.4762 15.261 13.1858 14.5925 13.3376 13.7384L13.4143 13.3082L13.8334 13.4008C13.9706 13.431 14.1123 13.4473 14.2573 13.4473C15.3102 13.4473 16.1596 12.6197 16.2118 11.592L16.2144 11.4919C16.2144 10.9358 15.982 10.4334 15.6062 10.0758L15.322 9.80508L15.5689 9.49906C16.0579 8.89219 16.7917 8.43358 17.6709 8.08079C18.5536 7.72664 19.6131 7.46738 20.7883 7.27777C23.1384 6.89859 26.0056 6.78986 28.9602 6.78985C32.0112 6.78985 34.1019 6.43681 35.7123 5.91781C37.3227 5.39882 38.4727 4.70811 39.658 3.99504C41.1828 3.0779 42.473 3.219 43.2886 3.6045L43.7319 3.81421L43.4567 4.22509C43.2491 4.53561 43.1284 4.90849 43.1284 5.31006L43.131 5.4101C43.1831 6.43786 44.0326 7.26546 45.0855 7.26546L45.2068 7.26172C45.8078 7.22499 46.3341 6.91714 46.6676 6.46029L47 6.00448L47.3325 6.46029C47.6883 6.9476 48.2631 7.26539 48.9141 7.26546C50.0009 7.26546 50.8711 6.38362 50.8712 5.31006L50.8654 5.16079ZM51.7 5.31006C51.6999 6.81407 50.5236 8.03183 49.0569 8.10647L48.9141 8.10968C48.1728 8.10962 47.4988 7.81796 46.9995 7.3425C46.5001 7.81777 45.8265 8.10967 45.0855 8.10968C43.5531 8.10968 42.2996 6.8626 42.2995 5.31006C42.2995 4.92462 42.3782 4.55743 42.5186 4.22295C41.9314 4.07881 41.0945 4.11193 40.0793 4.72263C38.8934 5.43606 37.6718 6.17209 35.9624 6.72298C34.2528 7.27389 32.0747 7.63407 28.9602 7.63407C26.0162 7.63408 23.2018 7.74335 20.9181 8.11182C19.7765 8.29601 18.781 8.54309 17.9745 8.8667C17.3262 9.12684 16.8188 9.42885 16.455 9.77137C16.8228 10.2453 17.0433 10.8424 17.0433 11.4919C17.0431 12.9959 15.8669 14.2137 14.4002 14.2883L14.2573 14.2915C14.1885 14.2915 14.1204 14.288 14.053 14.283C13.6824 15.3964 12.6379 16.1934 11.412 16.1934C10.4488 16.1934 9.59931 15.7011 9.0988 14.9517C8.26523 15.1451 7.48035 15.5092 6.79398 16.0212C6.08585 16.5495 5.49861 17.2228 5.07168 17.9958C4.64471 18.769 4.38754 19.6247 4.31689 20.505C4.2463 21.3852 4.36343 22.2707 4.66145 23.1018C4.95953 23.933 5.43196 24.6916 6.04655 25.3263C6.66106 25.961 7.40397 26.4573 8.22582 26.7815C8.5101 26.8936 8.80206 26.9835 9.0988 27.0522C9.59941 26.3029 10.449 25.811 11.412 25.811C12.6361 25.811 13.6794 26.6057 14.0514 27.7167C14.1193 27.7116 14.188 27.7087 14.2573 27.7087L14.4002 27.7119C15.8669 27.7865 17.0433 29.0042 17.0433 30.5083C17.0432 31.1576 16.8225 31.7537 16.455 32.2272C16.8188 32.5699 17.326 32.8727 17.9745 33.133C18.7809 33.4566 19.7761 33.7036 20.9175 33.8878C23.2013 34.2564 26.0159 34.3656 28.9602 34.3656C32.0747 34.3656 34.2528 34.7258 35.9624 35.2767C37.6718 35.8276 38.8934 36.5636 40.0793 37.277C41.0944 37.8877 41.9309 37.9199 42.5181 37.7756C42.3912 37.4729 42.3147 37.1434 42.3017 36.7977L42.2995 36.6901C42.2997 35.1376 43.5531 33.8905 45.0855 33.8905C45.8264 33.8905 46.5005 34.1819 47 34.6572C47.4994 34.182 48.1732 33.8906 48.9141 33.8905L49.0569 33.8937C50.5236 33.9684 51.6999 35.1862 51.7 36.6901L51.6979 36.7977C51.6849 37.1437 51.6075 37.4729 51.4805 37.7756C52.0676 37.9202 52.9045 37.8881 53.9203 37.277C55.1062 36.5636 56.3278 35.8276 58.0372 35.2767C59.7467 34.7258 61.9248 34.3656 65.0394 34.3656C67.9835 34.3656 70.7978 34.2564 73.0815 33.8878C74.2231 33.7036 75.2186 33.4566 76.025 33.133C76.6734 32.8727 77.1803 32.5698 77.5441 32.2272C77.1768 31.7537 76.9568 31.1572 76.9568 30.5083C76.9568 28.9558 78.2099 27.7088 79.7422 27.7087L79.8956 27.7124C79.913 27.7134 79.9303 27.7154 79.9476 27.7167C80.3197 26.6057 81.3635 25.8111 82.5875 25.811L82.7877 25.818C83.6675 25.8808 84.4342 26.3557 84.8997 27.0522C85.1966 26.9835 85.4887 26.8937 85.7732 26.7815C86.5952 26.4573 87.3385 25.961 87.953 25.3263C88.5675 24.6917 89.0395 23.9331 89.3376 23.1018C89.6357 22.2705 89.7533 21.385 89.6827 20.505C89.612 19.6247 89.3549 18.769 88.9279 17.9958C88.501 17.2228 87.9137 16.5495 87.2056 16.0212C86.5191 15.5091 85.7336 15.1451 84.8997 14.9517C84.4343 15.6483 83.668 16.1235 82.7882 16.1865L82.5875 16.1934C81.3617 16.1933 80.3166 15.3965 79.9461 14.283C79.9294 14.2842 79.9128 14.2863 79.8961 14.2873L79.7422 14.2915C78.2099 14.2914 76.9569 13.0443 76.9568 11.4919C76.9568 10.8428 77.1764 10.2454 77.5441 9.77137C77.1803 9.42897 76.6732 9.12677 76.025 8.8667C75.2185 8.5431 74.2231 8.29602 73.0815 8.11182C70.7978 7.74335 67.9834 7.63407 65.0394 7.63407C61.9248 7.63407 59.7467 7.27389 58.0372 6.72298C56.3278 6.17209 55.1062 5.43606 53.9203 4.72263C52.9045 4.11159 52.0672 4.0786 51.4799 4.22295C51.6205 4.55737 51.7 4.92432 51.7 5.31006Z" fill="black"/>
</svg>
