<svg width="32" height="32" viewBox="0 0 32 32" fill="none" xmlns="http://www.w3.org/2000/svg">
<path d="M0 15.36C0 8.1192 0 4.49884 2.24942 2.24942C4.49884 0 8.1192 0 15.36 0H16.64C23.8808 0 27.5011 0 29.7506 2.24942C32 4.49884 32 8.1192 32 15.36V16.64C32 23.8808 32 27.5011 29.7506 29.7506C27.5011 32 23.8808 32 16.64 32H15.36C8.1192 32 4.49884 32 2.24942 29.7506C0 27.5011 0 23.8808 0 16.64V15.36Z" fill="#0077FF"/>
<path d="M16.9535 22.6598C9.66017 22.6598 5.50024 17.6598 5.3269 9.33984H8.98024C9.10024 15.4465 11.7935 18.0332 13.9268 18.5665V9.33984H17.367V14.6065C19.4736 14.3798 21.6867 11.9798 22.4334 9.33984H25.8734C25.3001 12.5932 22.9001 14.9932 21.1934 15.9798C22.9001 16.7798 25.6336 18.8732 26.6736 22.6598H22.8868C22.0734 20.1265 20.047 18.1665 17.367 17.8998V22.6598H16.9535Z" fill="white"/>
</svg>
